<svg width="120" height="166" viewBox="0 0 120 166" fill="none" xmlns="http://www.w3.org/2000/svg">
<path d="M60 16L60 157" stroke="#0066F2" stroke-width="2"/>
<circle cx="60" cy="13" r="12.5" transform="rotate(90 60 13)" fill="#0066F2" stroke="#0066F2"/>
<path d="M58.143 9.911V8.734H60.629V16.5H59.309V9.911H58.143Z" fill="white"/>
<circle cx="60" cy="106" r="59.5" transform="rotate(90 60 106)" fill="white" stroke="#0066F2"/>
<path d="M45.4 121.66C51.88 117.22 57.06 112.88 60.94 108.64C64.86 104.36 66.82 100.4 66.82 96.76C66.82 94.6 66.28 92.88 65.2 91.6C64.16 90.32 62.46 89.68 60.1 89.68C57.66 89.68 55.82 90.48 54.58 92.08C53.34 93.64 52.64 95.88 52.48 98.8H45.82C46.1 93.96 47.58 90.26 50.26 87.7C52.98 85.14 56.44 83.86 60.64 83.86C64.76 83.86 67.98 84.96 70.3 87.16C72.66 89.32 73.84 92.32 73.84 96.16C73.84 99.24 72.88 102.36 70.96 105.52C69.08 108.68 66.68 111.6 63.76 114.28C60.84 116.92 57.82 119.2 54.7 121.12H74.8V126.7H45.4V121.66Z" fill="#0066F2"/>
</svg>
