<svg width="120" height="161" viewBox="0 0 120 161" fill="none" xmlns="http://www.w3.org/2000/svg">
<path d="M61 109L61 157" stroke="#0066F2" stroke-width="2"/>
<path d="M60 119.5C27.1391 119.5 0.500004 92.8609 0.500005 60C0.500006 27.1391 27.1391 0.499996 60 0.499997C92.8609 0.499999 119.5 27.1391 119.5 60C119.5 92.8609 92.8609 119.5 60 119.5Z" fill="white" stroke="#0066F2"/>
<path d="M51.3001 43.5V37.26H63.7801V81H56.8801V43.5H51.3001Z" fill="#0066F2"/>
<circle cx="61" cy="148" r="12.5" transform="rotate(90 61 148)" fill="#F3F3F3" stroke="#64768F"/>
<path d="M59.353 150.295C60.057 149.686 60.6107 149.188 61.014 148.799C61.4247 148.403 61.7657 147.992 62.037 147.567C62.3083 147.142 62.444 146.716 62.444 146.291C62.444 145.851 62.3377 145.506 62.125 145.257C61.9197 145.008 61.5933 144.883 61.146 144.883C60.7133 144.883 60.376 145.022 60.134 145.301C59.8993 145.572 59.7747 145.939 59.76 146.401H58.55C58.572 145.565 58.8213 144.927 59.298 144.487C59.782 144.04 60.3943 143.816 61.135 143.816C61.9343 143.816 62.5577 144.036 63.005 144.476C63.4597 144.916 63.687 145.503 63.687 146.236C63.687 146.764 63.5513 147.274 63.28 147.765C63.016 148.249 62.697 148.685 62.323 149.074C61.9563 149.455 61.487 149.899 60.915 150.405L60.42 150.845H63.907V151.89H58.561V150.977L59.353 150.295Z" fill="#64768F"/>
</svg>
