<svg width="120" height="202" viewBox="0 0 120 202" fill="none" xmlns="http://www.w3.org/2000/svg">
<path d="M60.9999 109L61 199.5" stroke="#0066F2" stroke-width="2"/>
<path d="M60 119.5C27.1391 119.5 0.500004 92.8609 0.500005 60C0.500006 27.1391 27.1391 0.499996 60 0.499997C92.8609 0.499999 119.5 27.1391 119.5 60C119.5 92.8609 92.8609 119.5 60 119.5Z" fill="white" stroke="#0066F2"/>
<path d="M51.2996 43.5V37.26H63.7796V81H56.8796V43.5H51.2996Z" fill="#0066F2"/>
<circle cx="61" cy="148" r="12.5" transform="rotate(90 61 148)" fill="#F3F3F3" stroke="#64768F"/>
<path d="M59.353 150.295C60.057 149.686 60.6107 149.188 61.014 148.799C61.4247 148.403 61.7657 147.992 62.037 147.567C62.3083 147.142 62.444 146.716 62.444 146.291C62.444 145.851 62.3377 145.506 62.125 145.257C61.9197 145.008 61.5933 144.883 61.146 144.883C60.7133 144.883 60.376 145.022 60.134 145.301C59.8993 145.572 59.7747 145.939 59.76 146.401H58.55C58.572 145.565 58.8213 144.927 59.298 144.487C59.782 144.04 60.3943 143.816 61.135 143.816C61.9343 143.816 62.5577 144.036 63.005 144.476C63.4597 144.916 63.687 145.503 63.687 146.236C63.687 146.764 63.5513 147.274 63.28 147.765C63.016 148.249 62.697 148.685 62.323 149.074C61.9563 149.455 61.487 149.899 60.915 150.405L60.42 150.845H63.907V151.89H58.561V150.977L59.353 150.295Z" fill="#64768F"/>
<circle cx="61" cy="189" r="12.5" transform="rotate(90 61 189)" fill="#F3F3F3" stroke="#64768F"/>
<path d="M58.638 186.961C58.682 186.279 58.9423 185.747 59.419 185.366C59.903 184.985 60.519 184.794 61.267 184.794C61.7803 184.794 62.224 184.886 62.598 185.069C62.972 185.252 63.2543 185.502 63.445 185.817C63.6357 186.132 63.731 186.488 63.731 186.884C63.731 187.339 63.61 187.727 63.368 188.05C63.126 188.373 62.8363 188.589 62.499 188.699V188.743C62.9317 188.875 63.269 189.117 63.511 189.469C63.753 189.814 63.874 190.257 63.874 190.8C63.874 191.233 63.775 191.618 63.577 191.955C63.379 192.292 63.0857 192.56 62.697 192.758C62.3083 192.949 61.8427 193.044 61.3 193.044C60.508 193.044 59.8553 192.842 59.342 192.439C58.836 192.028 58.5647 191.442 58.528 190.679H59.738C59.7673 191.068 59.9177 191.387 60.189 191.636C60.4603 191.878 60.827 191.999 61.289 191.999C61.7363 191.999 62.081 191.878 62.323 191.636C62.565 191.387 62.686 191.068 62.686 190.679C62.686 190.166 62.521 189.803 62.191 189.59C61.8683 189.37 61.3697 189.26 60.695 189.26H60.409V188.226H60.706C61.3 188.219 61.751 188.12 62.059 187.929C62.3743 187.738 62.532 187.438 62.532 187.027C62.532 186.675 62.4183 186.396 62.191 186.191C61.9637 185.978 61.641 185.872 61.223 185.872C60.8123 185.872 60.4933 185.978 60.266 186.191C60.0387 186.396 59.903 186.653 59.859 186.961H58.638Z" fill="#64768F"/>
</svg>
