<svg width="120" height="202" viewBox="0 0 120 202" fill="none" xmlns="http://www.w3.org/2000/svg">
<line x1="60" y1="6" x2="60" y2="193" stroke="#0066F2" stroke-width="2"/>
<circle cx="60" cy="13" r="12.5" transform="rotate(90 60 13)" fill="#0066F2" stroke="#0066F2"/>
<path d="M57.995 9.625V8.481H60.283V16.5H59.018V9.625H57.995Z" fill="white"/>
<circle cx="60" cy="101" r="59.5" transform="rotate(90 60 101)" fill="white" stroke="#0066F2"/>
<path d="M50.38 112.7C54.22 109.38 57.24 106.66 59.44 104.54C61.68 102.38 63.54 100.14 65.02 97.82C66.5 95.5 67.24 93.18 67.24 90.86C67.24 88.46 66.66 86.58 65.5 85.22C64.38 83.86 62.6 83.18 60.16 83.18C57.8 83.18 55.96 83.94 54.64 85.46C53.36 86.94 52.68 88.94 52.6 91.46H46C46.12 86.9 47.48 83.42 50.08 81.02C52.72 78.58 56.06 77.36 60.1 77.36C64.46 77.36 67.86 78.56 70.3 80.96C72.78 83.36 74.02 86.56 74.02 90.56C74.02 93.44 73.28 96.22 71.8 98.9C70.36 101.54 68.62 103.92 66.58 106.04C64.58 108.12 62.02 110.54 58.9 113.3L56.2 115.7H75.22V121.4H46.06V116.42L50.38 112.7Z" fill="#0066F2"/>
<circle cx="60" cy="189" r="12.5" transform="rotate(90 60 189)" fill="#F3F3F3" stroke="#64768F"/>
<path d="M59.3 184.992C59.8133 184.992 60.2533 185.084 60.62 185.267C60.9867 185.443 61.2617 185.689 61.445 186.004C61.6357 186.319 61.731 186.671 61.731 187.06C61.731 187.551 61.5917 187.962 61.313 188.292C61.0417 188.615 60.6567 188.809 60.158 188.875V188.93C60.6933 189.084 61.1113 189.315 61.412 189.623C61.72 189.924 61.874 190.342 61.874 190.877C61.874 191.53 61.6577 192.061 61.225 192.472C60.7923 192.875 60.1727 193.077 59.366 193.077C58.5373 193.077 57.87 192.868 57.364 192.45C56.858 192.025 56.5683 191.398 56.495 190.569H57.738C57.782 191.009 57.9397 191.361 58.211 191.625C58.4823 191.882 58.849 192.01 59.311 192.01C59.7437 192.01 60.0737 191.896 60.301 191.669C60.5357 191.442 60.653 191.148 60.653 190.789C60.653 190.356 60.4843 190.026 60.147 189.799C59.817 189.572 59.3367 189.458 58.706 189.458H58.409V188.424H58.706C59.9013 188.439 60.499 188.032 60.499 187.203C60.499 186.844 60.389 186.561 60.169 186.356C59.949 186.151 59.6483 186.048 59.267 186.048C58.8857 186.048 58.5667 186.165 58.31 186.4C58.0533 186.627 57.8993 186.961 57.848 187.401H56.616C56.6673 186.638 56.924 186.048 57.386 185.63C57.848 185.205 58.486 184.992 59.3 184.992Z" fill="#64768F"/>
</svg>
