<svg width="120" height="202" viewBox="0 0 120 202" fill="none" xmlns="http://www.w3.org/2000/svg">
<path d="M59.9999 16L60 200" stroke="#0066F2" stroke-width="2"/>
<circle cx="60" cy="13" r="12.5" transform="rotate(90 60 13)" fill="#0066F2" stroke="#0066F2"/>
<path d="M58.143 9.911V8.734H60.629V16.5H59.309V9.911H58.143Z" fill="white"/>
<circle cx="59.999" cy="54" r="12.5" transform="rotate(90 59.999 54)" fill="#0066F2" stroke="#0066F2"/>
<path d="M57.939 56.521C59.127 55.707 60.0767 54.9113 60.788 54.134C61.5067 53.3493 61.866 52.6233 61.866 51.956C61.866 51.56 61.767 51.2447 61.569 51.01C61.3784 50.7753 61.0667 50.658 60.634 50.658C60.1867 50.658 59.8494 50.8047 59.622 51.098C59.3947 51.384 59.2664 51.7947 59.237 52.33H58.016C58.0674 51.4427 58.3387 50.7643 58.83 50.295C59.3287 49.8257 59.963 49.591 60.733 49.591C61.4884 49.591 62.0787 49.7927 62.504 50.196C62.9367 50.592 63.153 51.142 63.153 51.846C63.153 52.4107 62.977 52.9827 62.625 53.562C62.2804 54.1413 61.8404 54.6767 61.305 55.168C60.7697 55.652 60.216 56.07 59.644 56.422H63.329V57.445H57.939V56.521Z" fill="white"/>
<circle cx="60" cy="142" r="59.5" transform="rotate(90 60 142)" fill="white" stroke="#0066F2"/>
<path d="M61 119.32C63.8 119.32 66.2 119.82 68.2 120.82C70.2 121.78 71.7 123.12 72.7 124.84C73.74 126.56 74.26 128.48 74.26 130.6C74.26 133.28 73.5 135.52 71.98 137.32C70.5 139.08 68.4 140.14 65.68 140.5V140.8C68.6 141.64 70.88 142.9 72.52 144.58C74.2 146.22 75.04 148.5 75.04 151.42C75.04 154.98 73.86 157.88 71.5 160.12C69.14 162.32 65.76 163.42 61.36 163.42C56.84 163.42 53.2 162.28 50.44 160C47.68 157.68 46.1 154.26 45.7 149.74H52.48C52.72 152.14 53.58 154.06 55.06 155.5C56.54 156.9 58.54 157.6 61.06 157.6C63.42 157.6 65.22 156.98 66.46 155.74C67.74 154.5 68.38 152.9 68.38 150.94C68.38 148.58 67.46 146.78 65.62 145.54C63.82 144.3 61.2 143.68 57.76 143.68H56.14V138.04H57.76C64.28 138.12 67.54 135.9 67.54 131.38C67.54 129.42 66.94 127.88 65.74 126.76C64.54 125.64 62.9 125.08 60.82 125.08C58.74 125.08 57 125.72 55.6 127C54.2 128.24 53.36 130.06 53.08 132.46H46.36C46.64 128.3 48.04 125.08 50.56 122.8C53.08 120.48 56.56 119.32 61 119.32Z" fill="#0066F2"/>
</svg>
