<svg width="24" height="24" viewBox="0 0 24 24" fill="none" xmlns="http://www.w3.org/2000/svg">
<path d="M21.8906 0H2.10938C0.946266 0 0 0.946266 0 2.10938V6.32812V21.8906C0 23.0537 0.946266 24 2.10938 24H21.8906C23.0537 24 24 23.0537 24 21.8906V6.32812V2.10938C24 0.946266 23.0537 0 21.8906 0ZM1.40625 2.10938C1.40625 1.72167 1.72167 1.40625 2.10938 1.40625H21.8906C22.2783 1.40625 22.5938 1.72167 22.5938 2.10938V5.625H1.40625V2.10938ZM22.5938 21.8906C22.5938 22.2783 22.2783 22.5938 21.8906 22.5938H2.10938C1.72167 22.5938 1.40625 22.2783 1.40625 21.8906V7.03125H22.5938V21.8906Z" fill="#B9CAEB"/>
<path d="M3.5625 4.21875C3.95083 4.21875 4.26562 3.90395 4.26562 3.51562C4.26562 3.1273 3.95083 2.8125 3.5625 2.8125C3.17417 2.8125 2.85938 3.1273 2.85938 3.51562C2.85938 3.90395 3.17417 4.21875 3.5625 4.21875Z" fill="#B9CAEB"/>
<path d="M6.375 4.21875C6.76333 4.21875 7.07812 3.90395 7.07812 3.51562C7.07812 3.1273 6.76333 2.8125 6.375 2.8125C5.98667 2.8125 5.67188 3.1273 5.67188 3.51562C5.67188 3.90395 5.98667 4.21875 6.375 4.21875Z" fill="#B9CAEB"/>
<path d="M9.1875 4.21875C9.57583 4.21875 9.89062 3.90395 9.89062 3.51562C9.89062 3.1273 9.57583 2.8125 9.1875 2.8125C8.79917 2.8125 8.48438 3.1273 8.48438 3.51562C8.48438 3.90395 8.79917 4.21875 9.1875 4.21875Z" fill="#B9CAEB"/>
<path d="M3.5625 17.4375H9.1875C9.57581 17.4375 9.89062 17.1227 9.89062 16.7344V15.7969C9.89062 14.5602 9.2482 13.4714 8.28009 12.8445C8.69798 12.3862 8.95312 11.777 8.95312 11.1094C8.95312 9.6878 7.79658 8.53125 6.375 8.53125C4.95342 8.53125 3.79688 9.6878 3.79688 11.1094C3.79688 11.777 4.05202 12.3862 4.46991 12.8445C3.5018 13.4714 2.85938 14.5602 2.85938 15.7969V16.7344C2.85938 17.1227 3.17419 17.4375 3.5625 17.4375ZM5.20312 11.1094C5.20312 10.4632 5.72883 9.9375 6.375 9.9375C7.02117 9.9375 7.54688 10.4632 7.54688 11.1094C7.54688 11.7555 7.02117 12.2812 6.375 12.2812C5.72883 12.2812 5.20312 11.7555 5.20312 11.1094ZM4.26562 15.7969C4.26562 14.6338 5.21189 13.6875 6.375 13.6875C7.53811 13.6875 8.48438 14.6338 8.48438 15.7969V16.0312H4.26562V15.7969Z" fill="#B9CAEB"/>
<path d="M12 9.9375H20.4375C20.8258 9.9375 21.1406 9.62269 21.1406 9.23438C21.1406 8.84606 20.8258 8.53125 20.4375 8.53125H12C11.6117 8.53125 11.2969 8.84606 11.2969 9.23438C11.2969 9.62269 11.6117 9.9375 12 9.9375Z" fill="#B9CAEB"/>
<path d="M12 12.75H20.4375C20.8258 12.75 21.1406 12.4352 21.1406 12.0469C21.1406 11.6586 20.8258 11.3438 20.4375 11.3438H12C11.6117 11.3438 11.2969 11.6586 11.2969 12.0469C11.2969 12.4352 11.6117 12.75 12 12.75Z" fill="#B9CAEB"/>
<path d="M12 15.5625H20.4375C20.8258 15.5625 21.1406 15.2477 21.1406 14.8594C21.1406 14.4711 20.8258 14.1562 20.4375 14.1562H12C11.6117 14.1562 11.2969 14.4711 11.2969 14.8594C11.2969 15.2477 11.6117 15.5625 12 15.5625Z" fill="#B9CAEB"/>
<path d="M20.4375 16.9688H17.625C17.2367 16.9688 16.9219 17.2836 16.9219 17.6719V20.4844C16.9219 20.8727 17.2367 21.1875 17.625 21.1875H20.4375C20.8258 21.1875 21.1406 20.8727 21.1406 20.4844V17.6719C21.1406 17.2836 20.8258 16.9688 20.4375 16.9688ZM19.7344 19.7812H18.3281V18.375H19.7344V19.7812Z" fill="#B9CAEB"/>
<path d="M12 21.1875H14.8125C15.2008 21.1875 15.5156 20.8727 15.5156 20.4844V17.6719C15.5156 17.2836 15.2008 16.9688 14.8125 16.9688H12C11.6117 16.9688 11.2969 17.2836 11.2969 17.6719V20.4844C11.2969 20.8727 11.6117 21.1875 12 21.1875ZM12.7031 18.375H14.1094V19.7812H12.7031V18.375Z" fill="#B9CAEB"/>
<path d="M3.5625 20.25H9.1875C9.57581 20.25 9.89062 19.9352 9.89062 19.5469C9.89062 19.1586 9.57581 18.8438 9.1875 18.8438H3.5625C3.17419 18.8438 2.85938 19.1586 2.85938 19.5469C2.85938 19.9352 3.17419 20.25 3.5625 20.25Z" fill="#B9CAEB"/>
</svg>
