<svg width="24" height="24" viewBox="0 0 24 24" fill="none" xmlns="http://www.w3.org/2000/svg">
<path d="M21.8906 0H2.10938C0.946266 0 0 0.946266 0 2.10938V5.625H24V2.10938C24 0.946266 23.0537 0 21.8906 0ZM3.5625 3.51562C3.17419 3.51562 2.85938 3.20081 2.85938 2.8125C2.85938 2.42419 3.17419 2.10938 3.5625 2.10938C3.95081 2.10938 4.26562 2.42419 4.26562 2.8125C4.26562 3.20081 3.95081 3.51562 3.5625 3.51562ZM6.375 3.51562C5.98669 3.51562 5.67188 3.20081 5.67188 2.8125C5.67188 2.42419 5.98669 2.10938 6.375 2.10938C6.76331 2.10938 7.07812 2.42419 7.07812 2.8125C7.07812 3.20081 6.76331 3.51562 6.375 3.51562ZM9.1875 3.51562C8.79919 3.51562 8.48438 3.20081 8.48438 2.8125C8.48438 2.42419 8.79919 2.10938 9.1875 2.10938C9.57581 2.10938 9.89062 2.42419 9.89062 2.8125C9.89062 3.20081 9.57581 3.51562 9.1875 3.51562Z" fill="#0066F2"/>
<path d="M6.14062 12.9375C6.78783 12.9375 7.3125 12.4128 7.3125 11.7656C7.3125 11.1184 6.78783 10.5938 6.14062 10.5938C5.49342 10.5938 4.96875 11.1184 4.96875 11.7656C4.96875 12.4128 5.49342 12.9375 6.14062 12.9375Z" fill="#0066F2"/>
<path d="M12.9375 19.0312H14.3438V20.4375H12.9375V19.0312Z" fill="#0066F2"/>
<path d="M18.5625 19.0312H19.9688V20.4375H18.5625V19.0312Z" fill="#0066F2"/>
<path d="M6.14062 14.3438C4.97752 14.3438 4.03125 15.29 4.03125 16.4531V16.6875H8.25V16.4531C8.25 15.29 7.30373 14.3438 6.14062 14.3438Z" fill="#0066F2"/>
<path d="M0 7.03125V21.8906C0 23.0537 0.946266 24 2.10938 24H21.8906C23.0537 24 24 23.0537 24 21.8906V7.03125H0ZM8.95312 20.9062H3.32812C2.93981 20.9062 2.625 20.5914 2.625 20.2031C2.625 19.8148 2.93981 19.5 3.32812 19.5H8.95312C9.34144 19.5 9.65625 19.8148 9.65625 20.2031C9.65625 20.5914 9.34144 20.9062 8.95312 20.9062ZM9.65625 17.3906C9.65625 17.7789 9.34144 18.0938 8.95312 18.0938H3.32812C2.93981 18.0938 2.625 17.7789 2.625 17.3906V16.4531C2.625 15.2164 3.26742 14.1277 4.23553 13.5008C3.81764 13.0424 3.5625 12.4333 3.5625 11.7656C3.5625 10.344 4.71905 9.1875 6.14062 9.1875C7.5622 9.1875 8.71875 10.344 8.71875 11.7656C8.71875 12.4333 8.46361 13.0424 8.04572 13.5008C9.01383 14.1277 9.65625 15.2164 9.65625 16.4531V17.3906ZM15.75 21.1406C15.75 21.5289 15.4352 21.8438 15.0469 21.8438H12.2344C11.8461 21.8438 11.5312 21.5289 11.5312 21.1406V18.3281C11.5312 17.9398 11.8461 17.625 12.2344 17.625H15.0469C15.4352 17.625 15.75 17.9398 15.75 18.3281V21.1406ZM21.375 21.1406C21.375 21.5289 21.0602 21.8438 20.6719 21.8438H17.8594C17.4711 21.8438 17.1562 21.5289 17.1562 21.1406V18.3281C17.1562 17.9398 17.4711 17.625 17.8594 17.625H20.6719C21.0602 17.625 21.375 17.9398 21.375 18.3281V21.1406ZM20.6719 16.2188H12.2344C11.8461 16.2188 11.5312 15.9039 11.5312 15.5156C11.5312 15.1273 11.8461 14.8125 12.2344 14.8125H20.6719C21.0602 14.8125 21.375 15.1273 21.375 15.5156C21.375 15.9039 21.0602 16.2188 20.6719 16.2188ZM20.6719 13.4062H12.2344C11.8461 13.4062 11.5312 13.0914 11.5312 12.7031C11.5312 12.3148 11.8461 12 12.2344 12H20.6719C21.0602 12 21.375 12.3148 21.375 12.7031C21.375 13.0914 21.0602 13.4062 20.6719 13.4062ZM20.6719 10.5938H12.2344C11.8461 10.5938 11.5312 10.2789 11.5312 9.89062C11.5312 9.50231 11.8461 9.1875 12.2344 9.1875H20.6719C21.0602 9.1875 21.375 9.50231 21.375 9.89062C21.375 10.2789 21.0602 10.5938 20.6719 10.5938Z" fill="#0066F2"/>
</svg>
