<svg width="24" height="24" viewBox="0 0 24 24" fill="none" xmlns="http://www.w3.org/2000/svg">
<path d="M21.8906 3.44824H2.10938C0.946266 3.44824 0 4.39451 0 5.55762V18.4427C0 19.6058 0.946266 20.552 2.10938 20.552H21.8906C23.0537 20.552 24 19.6058 24 18.4427V5.55762C24 4.39446 23.0537 3.44824 21.8906 3.44824ZM22.5938 18.4427C22.5938 18.8304 22.2783 19.1458 21.8906 19.1458H2.10938C1.72167 19.1458 1.40625 18.8304 1.40625 18.4427V8.34223H22.5938V18.4427ZM22.5938 6.93598H1.40625V5.55762C1.40625 5.16991 1.72167 4.85449 2.10938 4.85449H21.8906C22.2783 4.85449 22.5938 5.16991 22.5938 5.55762V6.93598Z" fill="#B9CAEB"/>
<path d="M8.05037 10.1846C6.79651 10.1846 5.77637 11.2047 5.77637 12.4586V15.5271C5.77637 15.9154 6.09118 16.2302 6.47949 16.2302C6.86781 16.2302 7.18262 15.9154 7.18262 15.5271V14.1942H8.91807V15.5271C8.91807 15.9154 9.23288 16.2302 9.6212 16.2302C10.0095 16.2302 10.3243 15.9154 10.3243 15.5271V12.4586C10.3244 11.2047 9.30423 10.1846 8.05037 10.1846ZM8.91812 12.788H7.18266V12.4586H7.18262C7.18262 11.9801 7.57191 11.5909 8.05037 11.5909C8.52882 11.5909 8.91812 11.9801 8.91812 12.4586V12.788Z" fill="#B9CAEB"/>
<path d="M13.8401 10.1846H12C11.6117 10.1846 11.2969 10.4994 11.2969 10.8877V15.5271C11.2969 15.9154 11.6117 16.2302 12 16.2302C12.3883 16.2302 12.7031 15.9154 12.7031 15.5271V14.1942H13.8401C14.9455 14.1942 15.8449 13.2948 15.8449 12.1893C15.8449 11.0839 14.9455 10.1846 13.8401 10.1846ZM13.8401 12.788H12.7031V11.5909H13.8401C14.1701 11.5909 14.4387 11.8594 14.4387 12.1895C14.4387 12.5196 14.1701 12.788 13.8401 12.788Z" fill="#B9CAEB"/>
<path d="M17.5205 10.1846C17.1322 10.1846 16.8174 10.4994 16.8174 10.8877V15.5271C16.8174 15.9154 17.1322 16.2302 17.5205 16.2302C17.9088 16.2302 18.2236 15.9154 18.2236 15.5271V10.8877C18.2236 10.4994 17.9088 10.1846 17.5205 10.1846Z" fill="#B9CAEB"/>
</svg>
