<svg width="24" height="24" viewBox="0 0 24 24" fill="none" xmlns="http://www.w3.org/2000/svg">
<path d="M13.84 12.0596H12.7031V13.2567H13.8401C14.1701 13.2567 14.4386 12.9882 14.4386 12.6581C14.4386 12.3281 14.1701 12.0596 13.84 12.0596Z" fill="#0066F2"/>
<path d="M8.05037 12.0596C7.57191 12.0596 7.18262 12.4488 7.18262 12.9273V13.2567H8.91812V12.9273C8.91812 12.4488 8.52882 12.0596 8.05037 12.0596Z" fill="#0066F2"/>
<path d="M0 8.3418V18.4422C0 19.6054 0.946266 20.5516 2.10938 20.5516H21.8906C23.0537 20.5516 24 19.6054 24 18.4422V8.3418H0ZM10.3244 15.9953C10.3244 16.3836 10.0095 16.6984 9.62123 16.6984C9.23292 16.6984 8.91811 16.3836 8.91811 15.9953V14.6624H7.18266V15.9953C7.18266 16.3836 6.86784 16.6984 6.47953 16.6984C6.09122 16.6984 5.77641 16.3836 5.77641 15.9953V12.9268H5.77636C5.77636 11.6729 6.7965 10.6528 8.05036 10.6528C9.30422 10.6528 10.3244 11.6729 10.3244 12.9268V15.9953ZM13.8401 14.6624H12.7031V15.9953C12.7031 16.3836 12.3883 16.6984 12 16.6984C11.6117 16.6984 11.2969 16.3836 11.2969 15.9953V11.3559C11.2969 10.9676 11.6117 10.6527 12 10.6527H13.8401C14.9455 10.6527 15.8449 11.5521 15.8449 12.6575C15.8449 13.763 14.9455 14.6624 13.8401 14.6624ZM18.2236 15.9952C18.2236 16.3835 17.9088 16.6984 17.5205 16.6984C17.1322 16.6984 16.8174 16.3835 16.8174 15.9952V11.3559C16.8174 10.9676 17.1322 10.6527 17.5205 10.6527C17.9088 10.6527 18.2236 10.9676 18.2236 11.3559V15.9952Z" fill="#0066F2"/>
<path d="M21.8906 3.44824H2.10938C0.946266 3.44824 0 4.39451 0 5.55762V6.93598H24V5.55762C24 4.39451 23.0537 3.44824 21.8906 3.44824Z" fill="#0066F2"/>
</svg>
