<svg width="20" height="11" viewBox="0 0 20 11" fill="none" xmlns="http://www.w3.org/2000/svg">
<path d="M19.0909 6.36363H3.10379L6.09737 9.35721C6.4524 9.71218 6.4524 10.2878 6.09737 10.6428C5.91986 10.8203 5.68719 10.9091 5.45452 10.9091C5.22186 10.9091 4.98919 10.8203 4.81173 10.6428L0.266273 6.09733C-0.0887585 5.74236 -0.0887585 5.16672 0.266273 4.81169L4.81173 0.266228C5.1667 -0.0887425 5.74234 -0.0887425 6.09737 0.266228C6.4524 0.621198 6.4524 1.19684 6.09737 1.55187L3.10379 4.54545H19.0909C19.593 4.54545 20 4.95248 20 5.45454C20 5.9566 19.593 6.36363 19.0909 6.36363Z" fill="#0066F2"/>
</svg>
