<svg width="24" height="24" viewBox="0 0 24 24" fill="none" xmlns="http://www.w3.org/2000/svg">
<g clip-path="url(#clip0_386_3129)">
<path d="M23.9601 13.5994L22.1383 3.26737C21.8907 1.86359 20.547 0.92284 19.1435 1.1704L3.51833 3.92559C2.1145 4.17311 1.17379 5.51653 1.42131 6.92031L1.55517 7.67959C0.640927 8.07841 0 8.99058 0 10.0501V20.2834C0 21.7088 1.15969 22.8685 2.58514 22.8685H18.096C19.5214 22.8685 20.6811 21.7088 20.6811 20.2834V16.8025L21.863 16.5941C22.5431 16.4742 23.1357 16.0967 23.5318 15.531C23.9279 14.9654 24.08 14.2793 23.9601 13.5994ZM22.3767 14.7222C22.1967 14.9793 21.9273 15.1509 21.6182 15.2054L20.6811 15.3707V14.567V11.3685V10.0501C20.6811 8.62462 19.5214 7.46493 18.096 7.46493H2.94922L2.81 6.67543C2.75548 6.36634 2.82466 6.05453 3.00468 5.79737C3.1847 5.54027 3.45412 5.36867 3.76321 5.31414L19.3884 2.559C19.4571 2.54687 19.5255 2.54104 19.593 2.54104C20.1521 2.54104 20.6493 2.94282 20.7496 3.51216L22.5714 13.8442C22.6259 14.1533 22.5567 14.4651 22.3767 14.7222ZM18.096 21.4585H2.58514C1.93721 21.4585 1.41008 20.9313 1.41008 20.2834V15.272H19.271V20.2834C19.271 20.9313 18.7439 21.4585 18.096 21.4585ZM2.58514 8.87505H18.096C18.7439 8.87505 19.271 9.40218 19.271 10.0501V10.6635H1.41008V10.0501C1.41008 9.40218 1.93721 8.87505 2.58514 8.87505ZM19.271 12.0736V13.862H1.41008V12.0736H19.271Z" fill="#B9CAEB"/>
<path d="M6.78491 18.627H3.58639C3.19702 18.627 2.88135 18.9426 2.88135 19.332C2.88135 19.7214 3.19702 20.037 3.58639 20.037H6.78491C7.17428 20.037 7.48995 19.7214 7.48995 19.332C7.48995 18.9426 7.17428 18.627 6.78491 18.627Z" fill="#B9CAEB"/>
</g>
<defs>
<clipPath id="clip0_386_3129">
<rect width="24" height="24" fill="white"/>
</clipPath>
</defs>
</svg>
