<svg width="24" height="24" viewBox="0 0 24 24" fill="none" xmlns="http://www.w3.org/2000/svg">
<path d="M23.9711 13.2001L22.1564 2.90826C21.9962 1.99963 21.206 1.36035 20.3142 1.36035C20.2063 1.36035 4.42241 4.13352 4.42241 4.13352C3.40381 4.31315 2.72366 5.28449 2.90328 6.30309L3.07822 7.29529H17.3232C19.1304 7.29529 20.6007 8.76553 20.6007 10.5727V11.886V15.0721V15.696L22.452 15.3696C23.4706 15.19 24.1507 14.2187 23.9711 13.2001Z" fill="#0066F2"/>
<path d="M19.1962 16.4766H0V20.7661C0 21.8004 0.8385 22.6389 1.8728 22.6389H17.3234C18.3577 22.6389 19.1962 21.8004 19.1962 20.7661V16.4766ZM5.57564 20.9516H2.38955C2.0017 20.9516 1.68727 20.6372 1.68727 20.2493C1.68727 19.8615 2.0017 19.5471 2.38955 19.5471H5.57564C5.96348 19.5471 6.27792 19.8615 6.27792 20.2493C6.27792 20.6372 5.96353 20.9516 5.57564 20.9516Z" fill="#0066F2"/>
<path d="M0.00219727 10.4817H19.1937C19.1461 9.48976 18.3269 8.7002 17.3232 8.7002H1.8727C0.869009 8.7002 0.0498223 9.48976 0.00219727 10.4817Z" fill="#0066F2"/>
<path d="M0 11.8867H19.1962V15.0728H0V11.8867Z" fill="#0066F2"/>
</svg>
