<svg width="24" height="21" viewBox="0 0 24 21" fill="none" xmlns="http://www.w3.org/2000/svg">
<path d="M12 8.15623C14.2487 8.15623 16.0781 6.3268 16.0781 4.07812C16.0781 1.82943 14.2487 0 12 0C9.75131 0 7.92188 1.82943 7.92188 4.07812C7.92188 6.3268 9.75131 8.15623 12 8.15623ZM12 1.40625C13.4733 1.40625 14.6719 2.60484 14.6719 4.07812C14.6719 5.5514 13.4733 6.74999 12 6.74999C10.5267 6.74999 9.32812 5.5514 9.32812 4.07812C9.32812 2.60484 10.5267 1.40625 12 1.40625Z" fill="#B9CAEB"/>
<path d="M20.25 8.15624C21.6716 8.15624 22.8281 6.9997 22.8281 5.57812C22.8281 4.15654 21.6716 3 20.25 3C18.8284 3 17.6719 4.15654 17.6719 5.57812C17.6719 6.9997 18.8284 8.15624 20.25 8.15624ZM20.25 4.40625C20.8962 4.40625 21.4219 4.93195 21.4219 5.57812C21.4219 6.22429 20.8962 6.74999 20.25 6.74999C19.6038 6.74999 19.0781 6.22429 19.0781 5.57812C19.0781 4.93195 19.6038 4.40625 20.25 4.40625Z" fill="#B9CAEB"/>
<path d="M20.8171 9.75H19.7297C18.4481 9.75 17.3419 10.5071 16.8378 11.5946C15.7999 10.4617 14.3092 9.75 12.6552 9.75H11.3448C9.69083 9.75 8.20006 10.4617 7.16221 11.5946C6.65807 10.5071 5.55182 9.75 4.2703 9.75H3.18281C1.42781 9.75 0 11.1692 0 12.9136V18.0328C0 18.7901 0.618468 19.4062 1.37868 19.4062H5.67838C5.75047 20.2453 6.45603 20.9062 7.31352 20.9062H16.6865C17.5439 20.9062 18.2495 20.2453 18.3216 19.4062H22.5722C23.3595 19.4062 24 18.7683 24 17.984V12.9136C24 11.1692 22.5721 9.75 20.8171 9.75ZM1.40625 12.9136C1.40625 11.9446 2.20321 11.1562 3.18281 11.1562H4.2703C5.2499 11.1562 6.04686 11.9446 6.04686 12.9136V13.395C5.57404 14.6262 5.67186 15.364 5.67186 18H1.40625V12.9136ZM16.9218 19.2646C16.9218 19.3944 16.8163 19.5 16.6865 19.5H7.31347C7.18367 19.5 7.07811 19.3944 7.07811 19.2646V15.4229C7.07811 13.0702 8.99211 11.1562 11.3447 11.1562H12.6552C15.0078 11.1562 16.9218 13.0702 16.9218 15.4228V19.2646ZM22.5937 17.984C22.5937 18.0083 22.8558 18 18.3281 18C18.3281 15.3445 18.4252 14.6241 17.9531 13.395V12.9136C17.9531 11.9446 18.7501 11.1562 19.7297 11.1562H20.8171C21.7967 11.1562 22.5937 11.9446 22.5937 12.9136V17.984Z" fill="#B9CAEB"/>
<path d="M3.74999 8.15624C5.17157 8.15624 6.32811 6.9997 6.32811 5.57812C6.32811 4.15654 5.17157 3 3.74999 3C2.32842 3 1.17188 4.15654 1.17188 5.57812C1.17188 6.9997 2.32842 8.15624 3.74999 8.15624ZM3.74999 4.40625C4.39617 4.40625 4.92187 4.93195 4.92187 5.57812C4.92187 6.22429 4.39617 6.74999 3.74999 6.74999C3.10382 6.74999 2.57812 6.22429 2.57812 5.57812C2.57812 4.93195 3.10382 4.40625 3.74999 4.40625Z" fill="#B9CAEB"/>
</svg>
