<svg width="24" height="21" viewBox="0 0 24 21" fill="none" xmlns="http://www.w3.org/2000/svg">
<path d="M12 8.17938C14.2523 8.17938 16.0781 6.34837 16.0781 4.08969C16.0781 1.83102 14.2523 0 12 0C9.74772 0 7.92188 1.83102 7.92188 4.08969C7.92188 6.34837 9.74772 8.17938 12 8.17938Z" fill="#0066F2"/>
<path d="M20.25 8.17967C21.6739 8.17967 22.8281 7.02213 22.8281 5.59423C22.8281 4.16633 21.6739 3.00879 20.25 3.00879C18.8261 3.00879 17.6719 4.16633 17.6719 5.59423C17.6719 7.02213 18.8261 8.17967 20.25 8.17967Z" fill="#0066F2"/>
<path d="M3.75001 8.17967C5.17387 8.17967 6.32814 7.02213 6.32814 5.59423C6.32814 4.16633 5.17387 3.00879 3.75001 3.00879C2.32614 3.00879 1.17188 4.16633 1.17188 5.59423C1.17188 7.02213 2.32614 8.17967 3.75001 8.17967Z" fill="#0066F2"/>
<path d="M6.29017 10.4998C5.27533 9.66595 4.35625 9.77632 3.18282 9.77632C1.42782 9.77632 0 11.1997 0 12.9489V18.0826C0 18.8423 0.618283 19.4599 1.3786 19.4599C4.66108 19.4599 4.26564 19.5195 4.26564 19.318C4.26564 15.6802 3.83598 13.0125 6.29017 10.4998Z" fill="#0066F2"/>
<path d="M13.1163 9.7957C11.0667 9.62426 9.28519 9.79768 7.74858 11.0696C5.17715 13.1351 5.67201 15.9163 5.67201 19.3186C5.67201 20.2187 6.40233 20.9648 7.31358 20.9648C17.2081 20.9648 17.6019 21.2849 18.1886 19.9818C18.381 19.5412 18.3283 19.6812 18.3283 15.4658C18.3283 12.1176 15.4374 9.7957 13.1163 9.7957Z" fill="#0066F2"/>
<path d="M20.8173 9.77718C19.6375 9.77718 18.7234 9.66793 17.71 10.5006C20.1458 12.9947 19.7345 15.4804 19.7345 19.3188C19.7345 19.5216 19.4062 19.4608 22.5723 19.4608C23.3598 19.4608 24.0001 18.821 24.0001 18.0346V12.9497C24.0001 11.2006 22.5723 9.77718 20.8173 9.77718Z" fill="#0066F2"/>
</svg>
