<svg width="24" height="24" viewBox="0 0 24 24" fill="none" xmlns="http://www.w3.org/2000/svg">
<g clip-path="url(#clip0_418_12887)">
<path d="M22.6787 10.6611C22.6787 8.33541 20.9517 6.40556 18.7126 6.08705C18.3814 2.67534 15.4974 0 12.0003 0C8.50327 0 5.61947 2.67539 5.28797 6.087C3.04884 6.40552 1.32178 8.33536 1.32178 10.661C1.32178 12.4016 2.28942 13.9201 3.71484 14.7078C3.68142 15.0264 3.66431 15.3464 3.66431 15.664C3.66431 16.2812 3.72642 16.8991 3.84895 17.5005C3.9157 17.8281 4.2037 18.0633 4.53792 18.0633H5.80945C5.84625 18.1581 5.8852 18.2519 5.92631 18.3449L5.02697 19.2442C4.79058 19.4805 4.75326 19.8507 4.93781 20.1294C5.27672 20.6416 5.66972 21.1224 6.10584 21.5585C6.54244 21.9951 7.02328 22.3881 7.53506 22.7266C7.81364 22.9109 8.18372 22.8736 8.42011 22.6373L9.31941 21.738C9.41236 21.7791 9.50625 21.8181 9.60108 21.8549V23.1264C9.60108 23.4606 9.83634 23.7486 10.1638 23.8154C10.7651 23.9378 11.383 24 12.0004 24C12.6177 24 13.2356 23.9379 13.8369 23.8154C14.1645 23.7486 14.3998 23.4606 14.3998 23.1264L14.3997 21.8549C14.4945 21.8181 14.5884 21.7791 14.6813 21.738L15.5805 22.6372C15.8168 22.8735 16.1867 22.9108 16.4655 22.7265C16.9771 22.3882 17.458 21.9951 17.8949 21.5583C18.3314 21.1218 18.7243 20.6409 19.0628 20.1292C19.2473 19.8505 19.2099 19.4805 18.9736 19.2441L18.0744 18.345C18.1156 18.252 18.1546 18.1581 18.1913 18.0633H19.4626C19.7968 18.0633 20.0848 17.828 20.1516 17.5005C20.2741 16.8989 20.3363 16.281 20.3363 15.6638C20.3362 15.3461 20.3191 15.0262 20.2857 14.7078C21.7111 13.9202 22.6787 12.4016 22.6787 10.6611ZM18.93 15.664C18.93 15.9961 18.9087 16.3283 18.8667 16.6571H17.6897C17.379 16.6571 17.105 16.8611 17.016 17.1589C16.9132 17.5031 16.7745 17.8371 16.6039 18.1515C16.4554 18.4252 16.5045 18.7639 16.7247 18.984L17.5577 19.8172C17.3551 20.0792 17.1352 20.3291 16.9003 20.564C16.6653 20.799 16.4154 21.0189 16.1534 21.2215L15.3203 20.3884C15.1002 20.1682 14.7613 20.1191 14.4877 20.2676C14.1732 20.4383 13.8393 20.577 13.4953 20.6797C13.1974 20.7686 12.9934 21.0426 12.9934 21.3534L12.9934 22.5306C12.3361 22.6146 11.6644 22.6146 11.0073 22.5306V21.3534C11.0073 21.0426 10.8032 20.7686 10.5053 20.6797C10.1615 20.577 9.82758 20.4383 9.51286 20.2676C9.23916 20.119 8.90048 20.1682 8.68031 20.3884L7.84701 21.2216C7.58498 21.019 7.33509 20.799 7.1002 20.5642C6.86545 20.3295 6.64547 20.0795 6.44273 19.8172L7.27594 18.984C7.49611 18.7639 7.54523 18.4251 7.39673 18.1515C7.22597 17.8368 7.08736 17.5029 6.9847 17.1591C6.89578 16.8613 6.62179 16.6572 6.31097 16.6572H5.13375C5.0917 16.3285 5.07047 15.9962 5.07047 15.6641C5.07047 15.5103 5.07525 15.3558 5.08458 15.2012C5.36245 15.2535 5.649 15.2812 5.94187 15.2812H8.77575C8.76094 15.4075 8.75292 15.5351 8.75292 15.6641C8.75292 17.4547 10.2097 18.9115 12.0003 18.9115C13.791 18.9115 15.2477 17.4547 15.2477 15.6641C15.2477 15.5351 15.2397 15.4075 15.2249 15.2812H18.0585C18.3514 15.2812 18.6379 15.2535 18.9158 15.2012C18.9251 15.3557 18.9299 15.5102 18.93 15.664ZM13.8011 15.2812C13.8277 15.406 13.8415 15.5339 13.8415 15.664C13.8415 16.6792 13.0155 17.5052 12.0003 17.5052C10.9852 17.5052 10.1592 16.6792 10.1592 15.664C10.1592 15.5339 10.173 15.406 10.1996 15.2812H13.8011ZM18.0586 13.875H12.7034V10.1349L13.6339 11.0654C13.7712 11.2027 13.9512 11.2714 14.1311 11.2714C14.311 11.2714 14.4909 11.2027 14.6283 11.0654C14.9029 10.7909 14.9029 10.3456 14.6283 10.071L12.4975 7.94034C12.223 7.6658 11.7778 7.6658 11.5032 7.94034L9.37247 10.071C9.09787 10.3456 9.09787 10.7908 9.37247 11.0654C9.64701 11.34 10.0922 11.34 10.3668 11.0654L11.2971 10.1351V13.875H5.94192C4.16976 13.875 2.72803 12.4332 2.72803 10.6611C2.72803 8.89148 4.16568 7.45134 5.93428 7.44717C5.94562 7.4475 5.95889 7.44755 5.97014 7.44741C6.35419 7.4415 6.66248 7.12814 6.66248 6.74405C6.66244 3.80077 9.057 1.40625 12.0003 1.40625C14.9436 1.40625 17.3381 3.80077 17.3381 6.74447C17.3381 6.93192 17.4129 7.11164 17.546 7.24364C17.6778 7.37433 17.8558 7.44759 18.0412 7.44759H18.0469C18.0537 7.4475 18.0605 7.44736 18.0676 7.44712C19.8356 7.45205 21.2724 8.89191 21.2724 10.661C21.2725 12.4332 19.8308 13.875 18.0586 13.875Z" fill="#B9CAEB"/>
</g>
<defs>
<clipPath id="clip0_418_12887">
<rect width="24" height="24" fill="white"/>
</clipPath>
</defs>
</svg>
