<svg width="22" height="24" viewBox="0 0 22 24" fill="none" xmlns="http://www.w3.org/2000/svg">
<path d="M17.7126 6.087C17.3814 2.67534 14.4974 0 11.0003 0C7.50327 0 4.61947 2.67539 4.28797 6.087C2.04884 6.40552 0.321777 8.33536 0.321777 10.661C0.321777 13.2086 2.3944 15.2812 4.94192 15.2812H10.2971V10.1351L9.36678 11.0654C9.09223 11.34 8.64702 11.34 8.37242 11.0654C8.09783 10.7909 8.09783 10.3456 8.37242 10.071L10.5031 7.94034C10.7777 7.6658 11.2229 7.6658 11.4975 7.94034L13.6282 10.071C13.9028 10.3456 13.9028 10.7908 13.6282 11.0654C13.4909 11.2027 13.311 11.2714 13.131 11.2714C12.9511 11.2714 12.7711 11.2027 12.6339 11.0654L11.7034 10.1349V15.2812H17.0586C19.6062 15.2812 21.6787 13.2086 21.6787 10.6611C21.6787 8.33536 19.9517 6.40552 17.7126 6.087Z" fill="#0066F2"/>
<path d="M12.8413 16.6875H9.15967C9.1682 17.6955 9.99053 18.513 11.0005 18.513C12.0105 18.513 12.8328 17.6955 12.8413 16.6875Z" fill="#0066F2"/>
<path d="M11.0005 19.849C9.23875 19.849 7.80114 18.4384 7.7553 16.6875H2.72266C2.75294 16.9607 2.79442 17.2324 2.84908 17.5006C2.91583 17.8282 3.20383 18.0634 3.53805 18.0634H4.80958C4.84638 18.1582 4.88533 18.252 4.92644 18.345L4.02709 19.2443C3.7907 19.4806 3.75339 19.8508 3.93794 20.1295C4.27689 20.6417 4.66984 21.1225 5.10597 21.5586C5.54256 21.9952 6.02336 22.3882 6.53519 22.7266C6.81381 22.9111 7.18389 22.8737 7.42024 22.6374L8.31953 21.7381C8.41249 21.7792 8.50638 21.8182 8.60121 21.855V23.1265C8.60121 23.4607 8.83647 23.7487 9.16394 23.8155C9.76521 23.9379 10.3831 24.0001 11.0005 24.0001C11.6178 24.0001 12.2358 23.938 12.8371 23.8155C13.1646 23.7487 13.3999 23.4607 13.3999 23.1265L13.3998 21.855C13.4946 21.8182 13.5885 21.7792 13.6815 21.7381L14.5806 22.6373C14.8169 22.8735 15.1869 22.9109 15.4656 22.7266C15.9772 22.3883 16.4582 21.9952 16.895 21.5584C17.3315 21.1218 17.7244 20.641 18.063 20.1293C18.2474 19.8506 18.2101 19.4805 17.9737 19.2442L17.0746 18.345C17.1157 18.2521 17.1547 18.1582 17.1915 18.0634H18.4627C18.7969 18.0634 19.0849 17.8281 19.1517 17.5006C19.2064 17.2324 19.2479 16.9607 19.2782 16.6875H14.2458C14.2 18.4385 12.7623 19.849 11.0005 19.849Z" fill="#0066F2"/>
</svg>
