<svg width="24" height="24" viewBox="0 0 24 24" fill="none" xmlns="http://www.w3.org/2000/svg">
<path d="M21.8906 9.18752C21.3058 9.18752 20.2515 9.40211 19.1958 10.6312C17.9169 9.31197 16.0874 8.48439 14.1094 8.48439H8.4375C8.17313 8.48439 7.90673 8.50225 7.62178 8.53933C6.45103 6.68679 4.32656 6.77327 3.29592 7.11316C3.06384 7.18938 2.88806 7.38096 2.83177 7.61852C2.77477 7.85608 2.8455 8.10602 3.01852 8.27838C3.42366 8.68352 3.74362 9.3145 3.95508 10.1186C3.11602 10.821 2.45681 11.702 2.01942 12.7031H0.703125C0.314484 12.7031 0 13.0176 0 13.4063V17.625C0 18.0137 0.314484 18.375 0.703125 18.375H2.02012C2.75484 20.0456 4.12814 21.3736 5.82206 22.0575L5.63461 23.1815C5.6003 23.3855 5.65795 23.5935 5.79183 23.7514C5.92505 23.9094 6.12141 24 6.32808 24H9.14058C9.48459 24 9.7778 23.7514 9.83409 23.4122L9.97078 22.5938H12.5761L12.7127 23.4122C12.769 23.7514 13.0622 24 13.4062 24H16.2188C16.6565 24 16.9837 23.6055 16.9123 23.1815L16.7255 22.0589C19.3904 20.9959 21.1875 18.4105 21.1875 15.5156C21.1875 14.1394 20.7751 12.8638 20.0888 11.7784C20.6626 11.0248 21.2904 10.5938 21.8906 10.5938C22.293 10.5938 22.5938 10.7792 22.5938 10.9453C22.5938 11.2165 22.3218 11.3855 22.3205 11.3861C21.9813 11.5764 21.8604 12.0048 22.05 12.3433C22.2398 12.6817 22.6675 12.803 23.0071 12.6138C23.3759 12.4072 24 11.8235 24 10.9453C24 9.95932 23.0737 9.18752 21.8906 9.18752ZM15.7305 20.9184C15.3927 21.0207 15.1826 21.3585 15.241 21.7066L15.3886 22.5938H14.0023L13.8656 21.7753C13.8093 21.4361 13.5161 21.1875 13.1721 21.1875H9.37477C9.03075 21.1875 8.73755 21.4361 8.68125 21.7753L8.54461 22.5938H7.15828L7.30589 21.7066C7.36425 21.3585 7.15416 21.0206 6.81633 20.9184C5.11894 20.404 3.75183 19.0553 3.15923 17.3895C3.05967 17.1093 2.79394 16.9219 2.49666 16.9219H1.40625V14.1094H2.49666C2.79398 14.1094 3.05972 13.9219 3.15928 13.6418C3.54173 12.5651 4.23253 11.6388 5.15606 10.9631C5.37717 10.8011 5.48428 10.5251 5.43005 10.2566C5.27967 9.51639 5.05992 8.87233 4.77225 8.32985C5.40052 8.37105 6.15994 8.64639 6.60558 9.60836C6.74222 9.90157 7.06013 10.0698 7.37667 10.0032C7.77628 9.92636 8.11341 9.89064 8.4375 9.89064H14.1094C17.211 9.89064 19.7812 12.4141 19.7812 15.5156C19.7812 17.9937 18.1256 20.1932 15.7305 20.9184Z" fill="#B9CAEB"/>
<path d="M6.32812 14.1094C6.71645 14.1094 7.03125 13.7946 7.03125 13.4062C7.03125 13.0179 6.71645 12.7031 6.32812 12.7031C5.9398 12.7031 5.625 13.0179 5.625 13.4062C5.625 13.7946 5.9398 14.1094 6.32812 14.1094Z" fill="#B9CAEB"/>
<path d="M12 7.07812C13.9384 7.07812 15.5156 5.50092 15.5156 3.5625C15.5156 1.62408 13.9384 0 12 0C10.0616 0 8.4375 1.62408 8.4375 3.5625C8.4375 5.50092 10.0616 7.07812 12 7.07812ZM12 1.40625C13.1632 1.40625 14.1094 2.39934 14.1094 3.5625C14.1094 4.72566 13.1632 5.67188 12 5.67188C10.8368 5.67188 9.84375 4.72566 9.84375 3.5625C9.84375 2.39934 10.8368 1.40625 12 1.40625Z" fill="#B9CAEB"/>
<path d="M14.8125 11.2969H9.14062C8.75198 11.2969 8.4375 11.6114 8.4375 12C8.4375 12.3886 8.75198 12.7031 9.14062 12.7031H14.8125C15.2011 12.7031 15.5156 12.3886 15.5156 12C15.5156 11.6114 15.2011 11.2969 14.8125 11.2969Z" fill="#B9CAEB"/>
</svg>
