<svg width="24" height="24" viewBox="0 0 24 24" fill="none" xmlns="http://www.w3.org/2000/svg">
<path d="M21.8906 9.18707C21.3058 9.18707 20.2515 9.40166 19.1958 10.6307C17.9169 9.31152 16.0874 8.48394 14.1094 8.48394H8.4375C8.17313 8.48394 7.90673 8.5018 7.62178 8.53888C6.45103 6.68699 4.3245 6.77352 3.29592 7.11271C3.06384 7.18893 2.88806 7.38051 2.83177 7.61807C2.77477 7.85563 2.8455 8.10557 3.01852 8.27793C3.42366 8.68307 3.74362 9.31405 3.95508 10.1181C3.11602 10.8206 2.45686 11.7015 2.01947 12.7027H0.703125C0.314484 12.7027 0 13.0172 0 13.4058V17.6246C0 18.0132 0.314484 18.3277 0.703125 18.3277H2.02012C2.75484 19.9983 4.12814 21.3731 5.82206 22.0571L5.63461 23.1811C5.6003 23.385 5.65795 23.5931 5.79183 23.751C5.92505 23.9089 6.12141 23.9996 6.32808 23.9996H9.14058C9.48459 23.9996 9.7778 23.751 9.83409 23.4118L9.97078 22.5933H12.5761L12.7127 23.4118C12.769 23.751 13.0622 23.9996 13.4062 23.9996H16.2188C16.4254 23.9996 16.6218 23.9089 16.755 23.751C16.8889 23.5931 16.9466 23.385 16.9122 23.1811L16.7255 22.0584C19.3904 20.9955 21.1875 18.4101 21.1875 15.5152C21.1875 14.139 20.7751 12.8634 20.0888 11.7779C20.6626 11.0244 21.2904 10.5933 21.8906 10.5933C22.293 10.5933 22.5938 10.7787 22.5938 10.9449C22.5938 11.2161 22.3218 11.385 22.3205 11.3857C21.9813 11.5759 21.8604 12.0043 22.05 12.3429C22.2396 12.6807 22.6669 12.8029 23.0071 12.6134C23.3759 12.4068 24 11.8231 24 10.9449C24 9.95886 23.0737 9.18707 21.8906 9.18707ZM6.32812 14.1089C5.93981 14.1089 5.625 13.7941 5.625 13.4058C5.625 13.0174 5.93981 12.7027 6.32812 12.7027C6.71644 12.7027 7.03125 13.0174 7.03125 13.4058C7.03125 13.7941 6.71644 14.1089 6.32812 14.1089ZM14.8125 12.7027H9.14062C8.75198 12.7027 8.4375 12.3882 8.4375 11.9996C8.4375 11.6109 8.75198 11.2964 9.14062 11.2964H14.8125C15.2011 11.2964 15.5156 11.6109 15.5156 11.9996C15.5156 12.3882 15.2011 12.7027 14.8125 12.7027Z" fill="#0066F2"/>
<path d="M8.4375 3.5625C8.4375 5.50092 10.0616 7.07812 12 7.07812C13.9384 7.07812 15.5156 5.50092 15.5156 3.5625C15.5156 1.62408 13.9384 0 12 0C10.0616 0 8.4375 1.62408 8.4375 3.5625Z" fill="#0066F2"/>
</svg>
