<svg width="24" height="24" viewBox="0 0 24 24" fill="none" xmlns="http://www.w3.org/2000/svg">
<path d="M16.4062 0H7.59375C5.9137 0 4.54688 1.36683 4.54688 3.04688V20.9531C4.54688 22.6332 5.9137 24 7.59375 24H16.4062C18.0863 24 19.4531 22.6332 19.4531 20.9531V3.04688C19.4531 1.36683 18.0863 0 16.4062 0ZM16.4062 22.5938H14.4567C14.7072 22.1696 14.8515 21.6757 14.8515 21.1485C14.8515 20.6212 14.7072 20.1273 14.4567 19.7032H18.0469V20.9531C18.0469 21.8578 17.3109 22.5938 16.4062 22.5938ZM5.95312 20.9531V19.7032H9.54333C9.29283 20.1273 9.14845 20.6213 9.14845 21.1485C9.14845 21.6757 9.29283 22.1696 9.54333 22.5938H7.59375C6.68906 22.5938 5.95312 21.8578 5.95312 20.9531ZM7.59375 1.40625H16.4062C17.3109 1.40625 18.0469 2.14223 18.0469 3.04688V18.2969H5.95312V3.04688C5.95312 2.14223 6.68906 1.40625 7.59375 1.40625ZM10.5547 21.1485C10.5547 20.3515 11.2031 19.7032 12 19.7032C12.7969 19.7032 13.4453 20.3515 13.4453 21.1485C13.4453 21.9454 12.7969 22.5938 12 22.5938C11.2031 22.5938 10.5547 21.9454 10.5547 21.1485Z" fill="#B9CAEB"/>
<path d="M9.44629 15.2231H14.5536V16.6294H9.44629V15.2231Z" fill="#B9CAEB"/>
<path d="M15.6917 5.93188H14.1735V5.09113C14.1735 3.89272 13.1985 2.91772 12.0001 2.91772C10.8017 2.91772 9.82666 3.89272 9.82666 5.09113V5.93188H8.30838L7.87793 13.8427H16.1222L15.6917 5.93188ZM9.6402 7.33817H14.3599L14.6373 12.4365H9.36279L9.6402 7.33817ZM12.0001 4.32397C12.4231 4.32397 12.7672 4.66813 12.7672 5.09113V5.93188H11.2329V5.09113C11.2329 4.66813 11.5771 4.32397 12.0001 4.32397Z" fill="#B9CAEB"/>
</svg>
