<svg width="16" height="24" viewBox="0 0 16 24" fill="none" xmlns="http://www.w3.org/2000/svg">
<path d="M6.55469 21.8516C6.55469 22.6485 7.20306 23.2969 7.99998 23.2969C8.79691 23.2969 9.44528 22.6486 9.44528 21.8516C9.44528 21.0546 8.79691 20.4062 7.99998 20.4062C7.20306 20.4062 6.55469 21.0546 6.55469 21.8516Z" fill="#0066F2"/>
<path d="M5.14845 21.8515C5.14845 21.3243 5.29283 20.8304 5.54333 20.4062H0.546875V20.9531C0.546875 22.6331 1.9137 24 3.59375 24H6.12819C5.52847 23.4768 5.14845 22.708 5.14845 21.8515Z" fill="#0066F2"/>
<path d="M15.4531 19V3.04688C15.4531 1.36683 14.0863 0 12.4062 0H3.59375C1.9137 0 0.546875 1.36683 0.546875 3.04688V19H15.4531ZM10.5537 16.6295H5.44634V15.2232H10.5537V16.6295ZM3.87791 13.2219L4.30836 5.31108H5.82664V4.47028C5.82659 3.27187 6.80159 2.29688 8 2.29688C9.19841 2.29688 10.1734 3.27187 10.1734 4.47028V5.31103H11.6916L12.1221 13.2218H3.87791V13.2219Z" fill="#0066F2"/>
<path d="M10.4569 20.4062C10.7074 20.8304 10.8518 21.3243 10.8518 21.8515C10.8518 22.708 10.4718 23.4768 9.87207 24H12.4065C14.0866 24 15.4534 22.6331 15.4534 20.9531V20.4062H10.4569Z" fill="#0066F2"/>
<path d="M8.76674 5.31103V4.47028C8.76674 4.04728 8.42263 3.70312 7.99958 3.70312C7.57658 3.70312 7.23242 4.04728 7.23242 4.47028V5.31103H8.76674Z" fill="#0066F2"/>
<path d="M10.3594 6.71729H5.63971L5.3623 11.8156H10.6368L10.3594 6.71729Z" fill="#0066F2"/>
</svg>
