<svg width="24" height="24" viewBox="0 0 24 24" fill="none" xmlns="http://www.w3.org/2000/svg">
<g clip-path="url(#clip0_386_3204)">
<path d="M18.3281 11.7188L12.7031 13.5938L18.3281 15.4688L23.9531 13.5938L18.3281 11.7188Z" fill="#0066F2"/>
<path d="M0.046875 13.5938L5.67188 15.4688L11.2969 13.5938L5.67188 11.7188L0.046875 13.5938Z" fill="#0066F2"/>
<path d="M12.2223 0.0360703C12.078 -0.0120234 11.922 -0.0120234 11.7776 0.0360703L6.375 1.83696L12 3.71196L17.625 1.83696L12.2223 0.0360703Z" fill="#0066F2"/>
<path d="M6.375 24.0001L11.2969 22.3595V15.0762L6.375 16.7168V24.0001Z" fill="#0066F2"/>
<path d="M0.046875 21.8527C0.046875 22.1554 0.240516 22.4241 0.527672 22.5197L4.96875 24.0001V16.7168L0.046875 15.0762V21.8527Z" fill="#0066F2"/>
<path d="M12.7031 22.3595L17.625 24.0001V16.7168L12.7031 15.0762V22.3595Z" fill="#0066F2"/>
<path d="M19.0312 24.0001L23.4723 22.5197C23.7594 22.424 23.9531 22.1553 23.9531 21.8527V15.0762L19.0312 16.7168V24.0001Z" fill="#0066F2"/>
<path d="M6.375 10.7344L11.2969 12.3751V4.96001L6.375 3.31934V10.7344Z" fill="#0066F2"/>
<path d="M17.625 10.7344V3.31934L12.7031 4.96001V12.3751L17.625 10.7344Z" fill="#0066F2"/>
</g>
<defs>
<clipPath id="clip0_386_3204">
<rect width="24" height="24" fill="white"/>
</clipPath>
</defs>
</svg>
