<svg width="24" height="24" viewBox="0 0 24 24" fill="none" xmlns="http://www.w3.org/2000/svg">
<path d="M23.4723 12.2704L18.3281 10.5556V2.57807C18.3281 2.27544 18.1344 2.00675 17.8473 1.91103L12.2223 0.0360352C12.078 -0.0120586 11.922 -0.0119648 11.7776 0.0360352L6.15263 1.91103C5.86552 2.00671 5.67188 2.27539 5.67188 2.57807V10.5556L0.527625 12.2704C0.240516 12.3661 0.046875 12.6348 0.046875 12.9374V21.4218C0.046875 21.7244 0.240516 21.9931 0.527625 22.0888L6.15263 23.9638C6.22481 23.9879 6.29991 23.9999 6.375 23.9999C6.45009 23.9999 6.52519 23.9879 6.59737 23.9638L12 22.163L17.4027 23.9638C17.4748 23.9879 17.55 23.9999 17.625 23.9999C17.7 23.9999 17.7752 23.9879 17.8473 23.9638L23.4723 22.0888C23.7594 21.9931 23.9531 21.7244 23.9531 21.4218V12.9374C23.9531 12.6348 23.7594 12.3661 23.4723 12.2704ZM17.625 14.0713L14.2235 12.9374L17.625 11.8036L21.0265 12.9374L17.625 14.0713ZM6.375 11.8036L9.77648 12.9374L6.375 14.0713L2.97347 12.9374L6.375 11.8036ZM11.2969 4.95983V11.9619L7.07812 10.5556V3.55358L11.2969 4.95983ZM16.9219 10.5556L12.7031 11.9619V4.95983L16.9219 3.55358V10.5556ZM7.07812 15.3192L11.2969 13.913V20.915L7.07812 22.3213V15.3192ZM12 1.44421L15.4015 2.57807L12 3.71188L8.59847 2.57807L12 1.44421ZM1.45312 13.913L5.67188 15.3192V22.3213L1.45312 20.915V13.913ZM12.7031 13.913L16.9219 15.3192V22.3213L12.7031 20.915V13.913ZM18.3281 22.3213V15.3192L22.5469 13.913V20.915L18.3281 22.3213Z" fill="#B9CAEB"/>
</svg>
