<svg width="21" height="24" viewBox="0 0 21 24" fill="none" xmlns="http://www.w3.org/2000/svg">
<path d="M10.2184 7.42773C7.69684 7.42773 5.64551 9.47907 5.64551 12.0004C5.64551 14.522 7.69684 16.5733 10.2184 16.5733C12.7397 16.5733 14.7911 14.522 14.7911 12.0004C14.7911 9.47907 12.7397 7.42773 10.2184 7.42773ZM12.9333 11.1393L9.65735 14.4152C9.51984 14.5527 9.33948 14.6216 9.1593 14.6216C8.97913 14.6216 8.79895 14.5529 8.66144 14.4152L7.40955 13.1633C7.13452 12.8885 7.13452 12.4426 7.40955 12.1676C7.68439 11.8926 8.13025 11.8926 8.40527 12.1676L9.1593 12.9216L11.9376 10.1436C12.2124 9.86853 12.6583 9.86853 12.9333 10.1436C13.2083 10.4184 13.2083 10.8643 12.9333 11.1393Z" fill="#0066F2"/>
<path d="M20.4134 6.51181L20.4127 6.49313C20.4023 6.2626 20.3953 6.01871 20.3911 5.74735C20.3715 4.42405 19.3196 3.32944 17.9961 3.25547C15.2367 3.10148 13.1021 2.2017 11.2782 0.423934L11.2626 0.409102C10.6677 -0.136367 9.77029 -0.136367 9.1752 0.409102L9.15963 0.423934C7.33573 2.2017 5.20109 3.10148 2.4417 3.25565C1.1184 3.32944 0.0662754 4.42405 0.0466832 5.74753C0.0426549 6.01706 0.0355138 6.26096 0.0250768 6.49313L0.0239782 6.53653C-0.0296715 9.3503 -0.0963217 12.8522 1.07518 16.0307C1.71935 17.7786 2.69493 19.298 3.97465 20.547C5.43217 21.9694 7.34122 23.0986 9.64871 23.9031C9.72378 23.9293 9.80178 23.9505 9.88125 23.9665C9.99331 23.9888 10.1061 24 10.2189 24C10.3317 24 10.4447 23.9888 10.5565 23.9665C10.636 23.9505 10.7146 23.9291 10.79 23.9028C13.0947 23.0967 15.0018 21.967 16.458 20.5448C17.7372 19.2955 18.7128 17.7757 19.3575 16.0274C20.5334 12.8394 20.4669 9.33089 20.4134 6.51181ZM10.2185 17.9815C6.92044 17.9815 4.23741 15.2985 4.23741 12.0004C4.23741 8.7023 6.92044 6.01926 10.2185 6.01926C13.5164 6.01926 16.1997 8.7023 16.1997 12.0004C16.1997 15.2985 13.5164 17.9815 10.2185 17.9815Z" fill="#0066F2"/>
</svg>
