<svg width="24" height="24" viewBox="0 0 24 24" fill="none" xmlns="http://www.w3.org/2000/svg">
<g clip-path="url(#clip0_418_12827)">
<path d="M12.9906 15.8113C13.0004 14.6596 11.6421 13.98 10.7288 14.6799C10.5158 14.84 10.2306 14.8659 9.99216 14.747C9.75375 14.628 9.60314 14.3844 9.60314 14.1179V11.0098H7.56521C7.93416 12.7284 6.56321 14.4173 4.8016 14.3972C3.04022 14.4174 1.66866 12.7283 2.03799 11.0098H0V19.9098C0 20.2981 0.314813 20.6129 0.703125 20.6129H2.03799C1.66899 18.8943 3.03994 17.2053 4.8016 17.2254C6.56297 17.2052 7.93449 18.8944 7.56521 20.6129H9.60314V17.5047C9.60314 17.2382 9.75375 16.9947 9.99216 16.8757C10.2306 16.7566 10.5158 16.7826 10.7288 16.9427C11.6424 17.6428 13.0006 16.9627 12.9906 15.8113Z" fill="#0066F2"/>
<path d="M3.73734 9.99225C3.85636 10.2307 3.8303 10.5159 3.67008 10.7289C2.97014 11.6423 3.65016 13.0006 4.80155 12.9906C5.9528 13.0006 6.633 11.6421 5.93297 10.7289C5.77275 10.516 5.74673 10.2308 5.8657 9.99225C5.98472 9.7538 6.22833 9.60314 6.49481 9.60314H9.60305V7.56516C7.88447 7.93416 6.19547 6.5632 6.21558 4.80155C6.19542 3.04017 7.88461 1.66861 9.60305 2.03798V0H0.703125C0.314812 0 0 0.314812 0 0.703125V9.60314H3.10823C3.37477 9.60314 3.61833 9.7538 3.73734 9.99225Z" fill="#0066F2"/>
<path d="M22.5861 3.38752C22.2775 3.38752 21.9844 3.48525 21.7383 3.67022C21.5253 3.83035 21.2401 3.85627 21.0017 3.73725C20.7633 3.61824 20.6127 3.37467 20.6127 3.10819V0.703125C20.6127 0.314813 20.2979 0 19.9096 0H11.0096V3.10814C11.0096 3.37463 10.859 3.61819 10.6206 3.7372C10.3822 3.85631 10.097 3.8303 9.88399 3.67017C8.97039 2.97024 7.61223 3.65002 7.62212 4.80155C7.61223 5.95299 8.97058 6.63296 9.88399 5.93288C10.0969 5.77275 10.3821 5.74683 10.6206 5.86585C10.859 5.98486 11.0096 6.22842 11.0096 6.49491V9.6031H13.0475C12.6786 7.88447 14.0495 6.19547 15.8112 6.21558C17.5726 6.19542 18.9441 7.88461 18.5748 9.6031H20.6127V6.49491C20.6127 6.22842 20.7634 5.98486 21.0018 5.86585C21.2402 5.74683 21.5254 5.7728 21.7384 5.93288C22.652 6.63291 24.0101 5.95294 24.0002 4.8015C24.0002 4.02183 23.3659 3.38752 22.5861 3.38752Z" fill="#0066F2"/>
<path d="M16.875 10.6205C16.756 10.3821 16.782 10.0968 16.9422 9.88384C17.6421 8.97048 16.9622 7.61219 15.8108 7.62213C14.6595 7.61214 13.9793 8.97067 14.6794 9.88384C14.8396 10.0968 14.8656 10.382 14.7466 10.6205C14.6276 10.859 14.384 11.0096 14.1175 11.0096H11.0093V13.0476C12.7279 12.6786 14.4169 14.0496 14.3967 15.8112C14.4169 17.5726 12.7277 18.9442 11.0093 18.5748V20.6128H14.1175C14.384 20.6128 14.6276 20.7634 14.7466 21.0019C14.8656 21.2403 14.8396 21.5256 14.6794 21.7386C13.9794 22.6519 14.6594 24.0102 15.8108 24.0002C16.9621 24.0102 17.6423 22.6517 16.9422 21.7386C16.782 21.5256 16.756 21.2404 16.875 21.0019C16.994 20.7634 17.2376 20.6128 17.5041 20.6128H19.9092C20.2975 20.6128 20.6123 20.298 20.6123 19.9097V18.5748C18.8937 18.9438 17.2047 17.5728 17.2249 15.8112C17.2047 14.0498 18.8939 12.6782 20.6123 13.0476V11.0096H17.5041C17.2376 11.0097 16.994 10.859 16.875 10.6205Z" fill="#0066F2"/>
</g>
<defs>
<clipPath id="clip0_418_12827">
<rect width="24" height="24" fill="white"/>
</clipPath>
</defs>
</svg>
