<svg width="24" height="24" viewBox="0 0 24 24" fill="none" xmlns="http://www.w3.org/2000/svg">
<g clip-path="url(#clip0_386_3170)">
<path d="M18.7529 12.0001C18.7529 8.04715 15.5368 4.83105 11.5839 4.83105C7.63089 4.83105 4.41479 8.04715 4.41479 12.0001C4.41479 15.9531 7.63089 19.1692 11.5839 19.1692C15.5368 19.1692 18.7529 15.9531 18.7529 12.0001ZM13.9267 13.8503C13.9304 14.3814 13.7265 14.8825 13.3534 15.2607C13.06 15.5579 12.6896 15.7506 12.287 15.8214V16.0726C12.287 16.4607 11.972 16.7757 11.5839 16.7757C11.1957 16.7757 10.8807 16.4607 10.8807 16.0726V15.8246C9.95776 15.6573 9.2523 14.8515 9.24667 13.8798C9.24386 13.4917 9.55698 13.1748 9.94511 13.1725C10.3323 13.1687 10.6501 13.4828 10.6529 13.8714C10.6548 14.1915 10.9159 14.4503 11.2356 14.4503H11.2393C11.6627 14.448 11.5028 14.4489 11.941 14.4461C12.5025 14.4427 12.7322 13.7193 12.2842 13.3871L11.5839 12.8687L10.0468 11.7315C9.54198 11.3579 9.24104 10.7603 9.24104 10.1326C9.24104 9.15481 9.94979 8.34059 10.8807 8.17465V7.92762C10.8807 7.53949 11.1957 7.22449 11.5839 7.22449C11.972 7.22449 12.287 7.53949 12.287 7.92762V8.17559C13.2156 8.34293 13.9225 9.15668 13.9225 10.1326C13.9225 10.5207 13.6075 10.8357 13.2193 10.8357C12.8307 10.8357 12.5162 10.5207 12.5162 10.1326C12.5162 9.81106 12.2546 9.54996 11.9331 9.54996C11.6804 9.54996 11.4876 9.54996 11.23 9.54996C10.667 9.54996 10.4359 10.2701 10.8831 10.6009L11.5839 11.1193L13.1209 12.257C13.621 12.6273 13.9225 13.2198 13.9267 13.8423V13.8503Z" fill="#0066F2"/>
<path d="M8.55117 21.7183C4.27753 20.3861 1.4062 16.4805 1.4062 11.9999C1.4062 8.03155 3.65822 4.51442 7.14234 2.83648L6.98414 3.26703C6.85026 3.63153 7.03715 4.03559 7.40165 4.16952C7.7661 4.30339 8.17017 4.11655 8.30414 3.752L9.00187 1.85277C9.13317 1.49544 8.95471 1.10483 8.61412 0.962L6.45445 0.0550153C6.09642 -0.0953129 5.68434 0.0730153 5.53397 0.431047C5.38359 0.789078 5.55196 1.2012 5.91 1.35158L6.49125 1.5957C4.85118 2.40341 3.3989 3.60078 2.29964 5.07163C0.795187 7.08453 0 9.48031 0 11.9999C0 14.5196 0.795187 16.9153 2.29964 18.9283C3.75379 20.8739 5.82529 22.3416 8.13262 23.0608C8.50256 23.1763 8.89734 22.9702 9.01312 22.5989C9.12871 22.2282 8.92185 21.8339 8.55117 21.7183Z" fill="#0066F2"/>
<path d="M20.8683 5.07175C19.4143 3.12602 17.3424 1.65841 15.0353 0.939344C14.665 0.823563 14.2703 1.03075 14.1545 1.40106C14.0392 1.77184 14.2459 2.16606 14.6167 2.28184C18.8902 3.61399 21.7617 7.51957 21.7617 12.0003C21.7617 15.9686 19.5094 19.4856 16.0257 21.1637L16.1837 20.7334C16.3178 20.3687 16.1307 19.9646 15.7661 19.8305C15.4018 19.6969 14.9978 19.8835 14.8637 20.2482L14.1657 22.1475C14.0371 22.4996 14.2077 22.8938 14.5537 23.0382C16.9236 24.0334 16.7955 24.0002 16.9853 24.0002C17.2599 24.0002 17.5209 23.8382 17.6339 23.5691C17.7843 23.2111 17.6159 22.7989 17.2579 22.6486L16.6767 22.4045C18.3167 21.5969 19.7691 20.3996 20.8683 18.9287C22.3724 16.9154 23.1679 14.5197 23.1679 12.0002C23.1679 9.48072 22.3725 7.08499 20.8683 5.07175Z" fill="#0066F2"/>
</g>
<defs>
<clipPath id="clip0_386_3170">
<rect width="24" height="24" fill="white"/>
</clipPath>
</defs>
</svg>
