<svg width="24" height="24" viewBox="0 0 24 24" fill="none" xmlns="http://www.w3.org/2000/svg">
<path d="M12.703 15.6961V15.5225C13.061 15.4486 13.3895 15.2711 13.6521 15.005C14.0033 14.6493 14.1948 14.1781 14.1914 13.6784L14.1913 13.6716C14.1874 13.0863 13.9041 12.529 13.4336 12.1808L11.4027 10.6779C11.0437 10.4122 11.2332 9.84074 11.6788 9.84074H12.317C12.573 9.84074 12.7812 10.0489 12.7812 10.3049C12.7812 10.6932 13.096 11.008 13.4843 11.008C13.8726 11.008 14.1874 10.6932 14.1874 10.3049C14.1874 9.40584 13.5498 8.65316 12.703 8.4748V8.30371C12.703 7.9154 12.3882 7.60059 11.9999 7.60059C11.6116 7.60059 11.2968 7.9154 11.2968 8.30371V8.47387C10.448 8.65068 9.80835 9.40443 9.80835 10.3049C9.80835 10.8951 10.0916 11.4571 10.5661 11.8082L12.5971 13.3112C12.9538 13.5751 12.7713 14.1523 12.3239 14.1551L11.6865 14.159C11.6856 14.159 11.6846 14.159 11.6836 14.159C11.4291 14.159 11.2212 13.9527 11.2196 13.6978C11.2172 13.3109 10.9029 12.999 10.5166 12.999C10.5151 12.999 10.5136 12.999 10.5121 12.999C10.1238 13.0014 9.81098 13.3181 9.81337 13.7064C9.8189 14.601 10.455 15.3469 11.2968 15.5247V15.696C11.2968 16.0844 11.6116 16.3992 11.9999 16.3992C12.3882 16.3992 12.703 16.0844 12.703 15.6961Z" fill="#B9CAEB"/>
<path d="M19.169 12C19.169 8.04705 15.953 4.83105 11.9999 4.83105C8.04686 4.83105 4.83081 8.04705 4.83081 12C4.83081 15.953 8.04686 19.169 11.9999 19.169C15.953 19.169 19.169 15.953 19.169 12ZM6.23706 12C6.23706 8.82241 8.82227 6.23726 11.9999 6.23726C15.1776 6.23726 17.7628 8.82241 17.7628 12C17.7628 15.1776 15.1776 17.7627 11.9999 17.7627C8.82227 17.7627 6.23706 15.1776 6.23706 12Z" fill="#B9CAEB"/>
<path d="M2.71551 18.9283C4.16966 20.8739 6.24125 22.3416 8.54858 23.0608C8.91852 23.1763 9.3133 22.9702 9.42908 22.5989C9.54468 22.2281 9.33782 21.8339 8.96713 21.7183C4.6934 20.3861 1.82202 16.4805 1.82202 11.9999C1.82202 8.0315 4.07408 4.51438 7.55825 2.83644L7.40005 3.26698C7.26618 3.63148 7.45307 4.03555 7.81757 4.16947C8.18202 4.30334 8.58613 4.1165 8.72005 3.75195L9.41783 1.85272C9.54833 1.49759 9.37288 1.10567 9.03008 0.961953L6.87036 0.0550153C6.51229 -0.0953129 6.10021 0.0730153 5.94983 0.431047C5.79946 0.789078 5.96783 1.2012 6.32586 1.35158L6.90716 1.5957C5.26705 2.40341 3.81477 3.60078 2.71546 5.07163C1.21101 7.08453 0.415771 9.48031 0.415771 11.9999C0.415771 14.5196 1.21101 16.9153 2.71551 18.9283Z" fill="#B9CAEB"/>
<path d="M21.2845 18.9286C22.789 16.9156 23.5842 14.5198 23.5842 12.0002C23.5842 9.48059 22.789 7.08481 21.2845 5.07186C19.8303 3.12622 17.7587 1.65856 15.4514 0.939267C15.081 0.823721 14.6865 1.03053 14.5709 1.40127C14.4553 1.772 14.6621 2.16622 15.0328 2.28177C19.3066 3.61405 22.178 7.51958 22.178 12.0002C22.178 15.9686 19.9259 19.4857 16.4417 21.1637L16.5999 20.7331C16.7338 20.3686 16.5469 19.9646 16.1824 19.8306C15.818 19.6969 15.4139 19.8837 15.2799 20.2482L14.5821 22.1474C14.4535 22.4974 14.621 22.8913 14.9699 23.0382C17.3398 24.0334 17.2117 24.0001 17.4015 24.0001C17.6761 24.0001 17.9371 23.8382 18.0501 23.5691C18.2005 23.211 18.0321 22.7989 17.6741 22.6485L17.0928 22.4044C18.7329 21.5968 20.1852 20.3994 21.2845 18.9286Z" fill="#B9CAEB"/>
</svg>
