<svg width="48" height="38" viewBox="0 0 48 38" fill="none" xmlns="http://www.w3.org/2000/svg">
<path d="M35.8336 0.22647L4.28664 8.67946C1.56504 9.40971 -0.0498839 12.2073 0.678202 14.9295L5.60991 33.3349C6.34046 36.0564 9.13789 37.672 11.8599 36.9433L43.4069 28.4903C46.1286 27.7604 47.7434 24.9625 47.0154 22.2403L42.0836 3.83491C41.3531 1.11339 38.5557 -0.501923 35.8336 0.22647ZM4.81495 10.6512L36.362 2.19816C37.7829 1.82139 39.2713 2.50263 39.9147 3.82405L24.0225 19.2406L2.55117 13.8356C2.4476 12.3695 3.39602 11.0353 4.81495 10.6512ZM42.876 26.5091L11.329 34.9621C9.69646 35.3942 8.02076 34.427 7.57904 32.797L3.09896 16.0771L24.0729 21.3612C24.2426 21.4029 24.4205 21.4027 24.5904 21.3602C24.7607 21.3166 24.9154 21.2275 25.0391 21.1023L40.561 6.03916L45.0411 22.7591C45.4774 24.3922 44.5084 26.07 42.876 26.5091Z" fill="#0066F2"/>
</svg>
