<svg width="31" height="49" viewBox="0 0 31 49" fill="none" xmlns="http://www.w3.org/2000/svg">
<path d="M15.58 0C20.1826 0 23.8779 1.2562 26.666 3.76861C29.4984 6.23694 30.9145 9.65293 30.9145 14.0166C30.9145 18.3362 29.5205 21.6419 26.7324 23.934C23.9443 26.1819 20.249 27.3059 15.6464 27.3059L15.3809 32.3968H7.2158L6.88388 21.1571H9.87111C13.7213 21.1571 16.6864 20.6502 18.7664 19.6364C20.8464 18.6227 21.8864 16.7714 21.8864 14.0827C21.8864 12.1433 21.3111 10.6006 20.1605 9.45458C19.0541 8.30857 17.5273 7.73557 15.58 7.73557C13.5443 7.73557 11.9511 8.28653 10.8005 9.38846C9.69409 10.4904 9.1409 12.0111 9.1409 13.9505H0.378347C0.334092 11.2617 0.909411 8.85954 2.10431 6.74383C3.2992 4.62812 5.04728 2.97522 7.34856 1.78513C9.69409 0.595044 12.4379 0 15.58 0ZM11.2652 48.1985C9.58345 48.1985 8.18941 47.6916 7.08303 46.6778C6.0209 45.62 5.48984 44.3197 5.48984 42.777C5.48984 41.2343 6.0209 39.9561 7.08303 38.9423C8.18941 37.8844 9.58345 37.3555 11.2652 37.3555C12.9026 37.3555 14.2524 37.8844 15.3145 38.9423C16.3766 39.9561 16.9077 41.2343 16.9077 42.777C16.9077 44.3197 16.3766 45.62 15.3145 46.6778C14.2524 47.6916 12.9026 48.1985 11.2652 48.1985Z" fill="#0066F2"/>
</svg>
