<svg width="10" height="10" viewBox="0 0 10 10" fill="none" xmlns="http://www.w3.org/2000/svg">
<g clip-path="url(#clip0_380_3075)">
<path d="M5.91616 5.00779L9.80997 1.11387C10.0634 0.860583 10.0634 0.451058 9.80997 0.197775C9.55668 -0.0555083 9.14716 -0.0555083 8.89388 0.197775L4.99995 4.0917L1.10614 0.197775C0.852741 -0.0555083 0.443335 -0.0555083 0.190052 0.197775C-0.0633506 0.451058 -0.0633506 0.860583 0.190052 1.11387L4.08386 5.00779L0.190052 8.90171C-0.0633506 9.15499 -0.0633506 9.56451 0.190052 9.8178C0.316278 9.94414 0.482247 10.0076 0.648098 10.0076C0.813948 10.0076 0.979799 9.94414 1.10614 9.8178L4.99995 5.92388L8.89388 9.8178C9.02022 9.94414 9.18607 10.0076 9.35192 10.0076C9.51777 10.0076 9.68362 9.94414 9.80997 9.8178C10.0634 9.56451 10.0634 9.15499 9.80997 8.90171L5.91616 5.00779Z" fill="#64768F"/>
</g>
<defs>
<clipPath id="clip0_380_3075">
<rect width="10" height="10" fill="white"/>
</clipPath>
</defs>
</svg>
