<svg width="59" height="64" viewBox="0 0 59 64" fill="none" xmlns="http://www.w3.org/2000/svg">
<g opacity="0.1" filter="url(#filter0_f_1032_4727)">
<ellipse cx="29.5" cy="52.8386" rx="21.5" ry="3.16128" fill="#0066F2"/>
</g>
<g clip-path="url(#clip0_1032_4727)">
<path d="M45.9846 17.134C45.6431 16.7732 45.2464 16.4849 44.8126 16.2773L46.8045 14.2855C48.3325 12.7575 48.3846 10.2562 46.9206 8.70962C46.5403 8.30791 46.0919 7.99629 45.6001 7.78564C46.432 6.29306 46.2557 4.36867 45.0485 3.09336C43.7304 1.70085 41.7023 1.50608 40.1937 2.3712C39.983 1.88485 39.6736 1.4414 39.2758 1.06474C37.7293 -0.399247 35.228 -0.34709 33.6999 1.18088L24.3785 10.5024L24.3453 10.4692L24.7132 7.33583C24.9685 5.16098 23.4069 3.18399 21.2321 2.92859C19.0474 2.67276 17.0803 4.234 16.8249 6.40964L16.2655 11.1738C16.109 12.5075 15.4998 13.765 14.5503 14.7145C11.1193 18.1454 9.74039 23.0828 10.8568 27.7682C8.74618 29.8789 8.7462 33.301 10.8569 35.4117L14.4828 39.0376C17.607 42.1618 22.6723 42.1618 25.7965 39.0376L26.5641 38.27C29.4747 37.8113 32.109 36.4694 34.207 34.3714L45.8686 22.7098C47.3965 21.1818 47.4486 18.6805 45.9846 17.134ZM43.9964 20.8377L32.3348 32.4992C29.2069 35.6271 25.5617 35.6971 25.3262 35.7637L24.8198 36.2701C22.235 38.8549 18.0443 38.8549 15.4595 36.2702L13.8283 34.6389C12.1443 32.9551 12.1443 30.2249 13.8282 28.541L13.6013 27.7839C12.4101 23.8084 13.491 19.5179 16.4222 16.5867C17.791 15.2179 18.6691 13.4053 18.8949 11.4827L19.4542 6.71851C19.5395 5.99168 20.1966 5.47321 20.9232 5.5582C21.6482 5.64327 22.1687 6.30232 22.0836 7.0273L21.7176 10.1454C21.622 10.9596 21.9044 11.7727 22.4841 12.3523C23.5304 13.3985 25.2267 13.3985 26.273 12.3522L35.5721 3.05294C36.0958 2.52944 36.9407 2.49978 37.4558 2.98746C38.0037 3.50611 38.0061 4.36328 37.4832 4.88617L30.9309 11.4384C30.414 11.9554 30.414 12.7936 30.931 13.3106C31.4479 13.8275 32.2833 13.8302 32.8003 13.3133C35.0886 11.0249 40.4957 5.61775 41.2273 4.88617C41.7477 4.36584 42.6055 4.36355 43.126 4.91353C43.6135 5.42856 43.5841 6.27356 43.0606 6.79723C42.2575 7.60038 36.9377 12.9201 34.6722 15.1855C34.1553 15.7025 34.1582 16.5378 34.6751 17.0548C35.1921 17.5717 36.0303 17.5717 36.5472 17.0547L43.0995 10.5024C43.6186 9.98326 44.4766 9.97875 44.9981 10.5298C45.4856 11.0448 45.4562 11.8898 44.9327 12.4135C44.6869 12.6593 40.369 16.9772 38.417 18.9292C37.9 19.4462 37.9024 20.2819 38.4194 20.7989C38.9364 21.3159 39.7746 21.3159 40.2916 20.7988L42.1635 18.9268C42.6849 18.4054 43.5426 18.4053 44.0622 18.9542C44.5495 19.469 44.52 20.314 43.9964 20.8377Z" fill="#0066F2"/>
<path d="M50.6408 33.0862C49.9097 33.0862 49.3269 33.6823 49.2233 34.406C48.6425 38.4614 45.4259 41.678 41.3706 42.2588C40.6469 42.3624 40.0508 42.9451 40.0508 43.6762C40.0508 44.4073 40.6457 45.0077 41.3724 44.9272C46.888 44.3157 51.2802 39.9235 51.8917 34.4078C51.9723 33.6812 51.3718 33.0862 50.6408 33.0862Z" fill="#0066F2"/>
<path d="M46.5383 34.4014C46.6834 33.6849 46.0769 33.0862 45.3458 33.0862C44.6147 33.0862 44.0435 33.6952 43.8037 34.3858C43.4057 35.5319 42.4965 36.4411 41.3504 36.8391C40.6598 37.0789 40.0508 37.6501 40.0508 38.3812C40.0508 39.1123 40.6494 39.7187 41.366 39.5737C43.9625 39.0481 46.0128 36.9979 46.5383 34.4014Z" fill="#0066F2"/>
</g>
<defs>
<filter id="filter0_f_1032_4727" x="0" y="41.6774" width="59" height="22.3226" filterUnits="userSpaceOnUse" color-interpolation-filters="sRGB">
<feFlood flood-opacity="0" result="BackgroundImageFix"/>
<feBlend mode="normal" in="SourceGraphic" in2="BackgroundImageFix" result="shape"/>
<feGaussianBlur stdDeviation="4" result="effect1_foregroundBlur_1032_4727"/>
</filter>
<clipPath id="clip0_1032_4727">
<rect width="45" height="45" fill="white" transform="translate(7)"/>
</clipPath>
</defs>
</svg>
