<svg width="102" height="19" viewBox="0 0 102 19" fill="none" xmlns="http://www.w3.org/2000/svg">
<path d="M24.3064 0.0478516H27.0898L32.4885 14.4433H29.4892L28.2415 10.8081H22.9628L21.7151 14.4433H18.9077L24.3064 0.0478516ZM27.4737 8.55423L25.6021 2.95602L23.7066 8.55423H27.4737Z" fill="white"/>
<path d="M33.4963 4.31302H35.9197L35.9917 5.45205C36.1117 5.30664 36.2557 5.16123 36.4236 4.99159C36.5916 4.82195 36.7835 4.67654 37.0235 4.55536C37.2634 4.43419 37.5274 4.31302 37.8393 4.24031C38.1512 4.14338 38.4871 4.11914 38.895 4.11914C40.2147 4.11914 41.2225 4.60383 41.8943 5.59746C42.3982 5.06429 42.9261 4.67654 43.454 4.45843C43.9818 4.24031 44.6057 4.11914 45.3255 4.11914C46.5972 4.11914 47.557 4.5069 48.2288 5.25817C48.9007 6.00945 49.2366 7.0273 49.2366 8.31174V14.4674H46.7172V8.31174C46.7172 7.65741 46.5492 7.17271 46.2373 6.80919C45.9254 6.44567 45.4695 6.27603 44.9176 6.27603C44.5817 6.27603 44.2698 6.34873 43.9818 6.46991C43.6939 6.61531 43.454 6.80919 43.238 7.05154C43.0221 7.29389 42.8781 7.5847 42.7581 7.89975C42.6621 8.2148 42.5902 8.57832 42.5902 8.94184V14.4189H40.0708V8.31174C40.0708 7.65741 39.9028 7.17271 39.5909 6.80919C39.2789 6.44567 38.823 6.27603 38.2712 6.27603C37.9353 6.27603 37.6233 6.34873 37.3354 6.46991C37.0475 6.61531 36.8075 6.80919 36.5916 7.05154C36.3756 7.29389 36.2317 7.5847 36.1117 7.89975C36.0157 8.2148 35.9437 8.57832 35.9437 8.94184V14.4189H33.4243V4.31302H33.4963Z" fill="white"/>
<path d="M50.8203 4.31284H53.2437L53.3157 5.45187C53.4357 5.30646 53.6037 5.16105 53.7716 4.99141C53.9396 4.82177 54.1555 4.67636 54.4195 4.55519C54.6594 4.40978 54.9473 4.31284 55.2593 4.2159C55.5712 4.11896 55.9311 4.09473 56.339 4.09473C57.5867 4.09473 58.5465 4.48248 59.1943 5.23376C59.8422 5.98503 60.1781 7.00289 60.1781 8.28733V14.4429H57.6587V8.31156C57.6587 7.65723 57.4907 7.17253 57.1308 6.80901C56.7709 6.44549 56.339 6.27585 55.7631 6.27585C55.4272 6.27585 55.0913 6.34855 54.8034 6.46973C54.5154 6.61513 54.2515 6.80901 54.0356 7.05136C53.8196 7.29371 53.6516 7.58452 53.5317 7.89957C53.4117 8.21462 53.3397 8.57815 53.3397 8.94167V14.4187H50.8203V4.31284Z" fill="white"/>
<path d="M67.6642 13.4744C67.4003 13.8137 66.9924 14.1045 66.4165 14.3469C65.8647 14.6135 65.2408 14.7346 64.569 14.7346C64.1611 14.7346 63.7532 14.6619 63.3452 14.5408C62.9373 14.4196 62.5774 14.2257 62.2415 13.9591C61.9056 13.6925 61.6416 13.3533 61.4257 12.9413C61.2097 12.5293 61.1138 12.0446 61.1138 11.463C61.1138 10.8813 61.2097 10.3724 61.4257 9.91193C61.6416 9.45147 61.9296 9.08795 62.3135 8.7729C62.6974 8.45785 63.1533 8.23974 63.7052 8.07009C64.257 7.90045 64.8329 7.82775 65.5047 7.82775C65.6967 7.82775 65.9126 7.82775 66.1766 7.82775C66.4165 7.82775 66.6565 7.85198 66.8724 7.85198C67.1364 7.87622 67.4003 7.87622 67.6642 7.90045V7.6581C67.6642 7.14918 67.4723 6.76142 67.0644 6.4706C66.6565 6.17979 66.1526 6.03438 65.5047 6.03438C64.7849 6.03438 64.233 6.13132 63.8011 6.3252C63.3692 6.51907 62.9853 6.71295 62.6734 6.93106L61.5217 5.2104C61.7136 5.06499 61.9536 4.91958 62.1935 4.77418C62.4575 4.62877 62.7454 4.48336 63.0813 4.36219C63.4172 4.24101 63.8251 4.14407 64.257 4.07137C64.7129 3.99866 65.2168 3.9502 65.8167 3.9502C66.4645 3.9502 67.0404 4.04713 67.5683 4.21678C68.0961 4.38642 68.528 4.653 68.9119 4.96805C69.2719 5.2831 69.5598 5.67086 69.7757 6.13132C69.9677 6.59178 70.0637 7.07647 70.0637 7.60963V14.3953H67.7122L67.6642 13.4744ZM67.6642 9.86346C67.4003 9.83923 67.1604 9.83923 66.9204 9.81499C66.7285 9.79076 66.5125 9.79076 66.2966 9.79076C66.0806 9.79076 65.8887 9.79076 65.7207 9.79076C64.9049 9.79076 64.329 9.9604 64.0171 10.2755C63.6812 10.5905 63.5372 10.9783 63.5372 11.3902C63.5372 11.8265 63.6812 12.1658 63.9931 12.4081C64.305 12.6505 64.7609 12.7716 65.3608 12.7716C65.6487 12.7716 65.9366 12.7232 66.2246 12.6262C66.5125 12.5293 66.7525 12.3839 66.9684 12.2142C67.1844 12.0446 67.3523 11.8507 67.4963 11.6084C67.6402 11.3902 67.6882 11.1237 67.6882 10.8813V9.86346H67.6642Z" fill="white"/>
<path d="M72.3193 0.0478516H76.8783C77.886 0.0478516 78.6778 0.19326 79.3257 0.508311C79.9495 0.823362 80.4534 1.18688 80.8373 1.64734C81.1972 2.1078 81.4612 2.59249 81.6051 3.10142C81.7491 3.61035 81.8211 4.09505 81.8211 4.53127C81.8211 5.33102 81.6771 6.03382 81.3892 6.59122C81.1013 7.17285 80.7413 7.63331 80.2855 7.99683C79.8296 8.36035 79.3257 8.62694 78.7498 8.79658C78.174 8.96622 77.6221 9.06316 77.0702 9.06316H74.9107V14.419H72.3193V0.0478516ZM76.8543 6.7851C77.5261 6.7851 78.078 6.59122 78.4859 6.17923C78.8938 5.76724 79.0857 5.25831 79.0857 4.60397C79.0857 3.9254 78.8698 3.36801 78.4379 2.95602C78.006 2.54403 77.4781 2.32591 76.8303 2.32591H74.8867V6.7851H76.8543Z" fill="white"/>
<path d="M88.4196 13.4744C88.1557 13.8137 87.7478 14.1045 87.1719 14.3469C86.62 14.6135 85.9962 14.7346 85.3243 14.7346C84.9164 14.7346 84.5085 14.6619 84.1006 14.5408C83.6927 14.4196 83.3328 14.2257 82.9969 13.9591C82.661 13.6925 82.397 13.3533 82.1811 12.9413C81.9651 12.5293 81.8691 12.0446 81.8691 11.463C81.8691 10.8813 81.9651 10.3724 82.1811 9.91193C82.397 9.45147 82.6849 9.08795 83.0689 8.7729C83.4528 8.45785 83.9087 8.23974 84.4605 8.07009C85.0124 7.90045 85.5883 7.82775 86.2601 7.82775C86.4521 7.82775 86.668 7.82775 86.9319 7.82775C87.1719 7.82775 87.4118 7.85198 87.6278 7.85198C87.8917 7.87622 88.1557 7.87622 88.4196 7.90045V7.6581C88.4196 7.14918 88.2276 6.76142 87.8197 6.4706C87.4118 6.17979 86.908 6.03438 86.2601 6.03438C85.5403 6.03438 84.9884 6.13132 84.5565 6.3252C84.1246 6.51907 83.7407 6.71295 83.4288 6.93106L82.277 5.2104C82.469 5.06499 82.7089 4.91958 82.9489 4.77418C83.2128 4.62877 83.5008 4.48336 83.8367 4.36219C84.1726 4.24101 84.5805 4.14407 85.0124 4.07137C85.4683 3.99866 85.9722 3.9502 86.572 3.9502C87.2199 3.9502 87.7957 4.04713 88.3236 4.21678C88.8515 4.38642 89.2834 4.653 89.6673 4.96805C90.0272 5.2831 90.3152 5.67086 90.5311 6.13132C90.7231 6.59178 90.819 7.07647 90.819 7.60963V14.3953H88.4676L88.4196 13.4744ZM88.4196 9.86346C88.1557 9.83923 87.9157 9.83923 87.6758 9.81499C87.4838 9.79076 87.2679 9.79076 87.0519 9.79076C86.836 9.79076 86.644 9.79076 86.4761 9.79076C85.6602 9.79076 85.0844 9.9604 84.7725 10.2755C84.4365 10.5905 84.2926 10.9783 84.2926 11.3902C84.2926 11.8265 84.4365 12.1658 84.7485 12.4081C85.0604 12.6505 85.5163 12.7716 86.1161 12.7716C86.4041 12.7716 86.692 12.7232 86.9799 12.6262C87.2679 12.5293 87.5078 12.3839 87.7238 12.2142C87.9397 12.0446 88.1077 11.8507 88.2516 11.6084C88.3956 11.3902 88.4436 11.1237 88.4436 10.8813V9.86346H88.4196Z" fill="white"/>
<path d="M92.4985 16.4308C92.6425 16.552 92.7865 16.6489 92.9784 16.7701C93.1464 16.8671 93.3623 16.9398 93.6263 16.9398C93.9622 16.9398 94.2501 16.7943 94.4661 16.5035C94.682 16.2127 94.922 15.7765 95.1619 15.1706L95.4738 14.3466L90.9629 4.31348H93.8662L96.7215 11.2446L99.2409 4.31348H102L97.8253 14.4193C97.6333 14.9283 97.4174 15.4372 97.2254 15.9704C97.0335 16.5035 96.7695 16.9882 96.4816 17.4487C96.1937 17.9091 95.8337 18.2727 95.4018 18.5635C94.9699 18.8543 94.4421 18.9997 93.7702 18.9997C93.1944 18.9997 92.7385 18.927 92.3546 18.8058C91.9706 18.6604 91.6347 18.4665 91.3708 18.2242L92.4985 16.4308Z" fill="white"/>
<path d="M14.4926 6.59165H1.34368C0.599859 6.59165 0 5.98578 0 5.2345C0 4.48323 0.599859 3.87736 1.34368 3.87736H11.7572L10.4135 2.18093C9.95766 1.5993 10.0536 0.751086 10.6295 0.290627C11.2054 -0.169833 12.0452 -0.0728938 12.5011 0.508739L15.5243 4.41053C15.8363 4.82252 15.9083 5.37991 15.6683 5.84037C15.4764 6.30083 15.0205 6.59165 14.4926 6.59165Z" fill="white"/>
<path d="M4.36681 14.4676C3.9829 14.4676 3.57499 14.298 3.31106 13.9587L0.287767 10.0327C-0.0241597 9.62069 -0.0961428 9.0633 0.143801 8.60284C0.35975 8.14238 0.839637 7.85156 1.34352 7.85156H14.5164C15.2602 7.85156 15.8601 8.45743 15.8601 9.2087C15.8601 9.95998 15.2602 10.5658 14.5164 10.5658H4.07888L5.42256 12.2865C5.87845 12.8681 5.78247 13.7164 5.20661 14.1768C4.94267 14.3707 4.65474 14.4676 4.36681 14.4676Z" fill="white"/>
</svg>
