<svg width="24" height="24" viewBox="0 0 24 24" fill="none" xmlns="http://www.w3.org/2000/svg">
<path d="M23.714 22.3342L18.1205 16.7407C17.7393 16.3595 17.1221 16.3595 16.7409 16.7407C16.3598 17.1215 16.3598 17.7394 16.7409 18.1202L22.3345 23.7137C22.525 23.9043 22.7745 23.9996 23.0242 23.9996C23.2736 23.9996 23.5234 23.9043 23.714 23.7137C24.0951 23.3329 24.0951 22.715 23.714 22.3342Z" fill="#64768F"/>
<path d="M10.5691 0C4.74145 0 0 4.74145 0 10.5691C0 16.3971 4.74145 21.1382 10.5691 21.1382C16.3971 21.1382 21.1382 16.3971 21.1382 10.5691C21.1382 4.74145 16.3971 0 10.5691 0ZM10.5691 19.187C5.81723 19.187 1.95122 15.321 1.95122 10.5691C1.95122 5.81728 5.81723 1.95122 10.5691 1.95122C15.321 1.95122 19.187 5.81723 19.187 10.5691C19.187 15.321 15.321 19.187 10.5691 19.187Z" fill="#64768F"/>
</svg>
