<svg width="24" height="24" viewBox="0 0 24 24" fill="none" xmlns="http://www.w3.org/2000/svg">
<path d="M19 2H13C12.7348 2 12.4804 2.10536 12.2929 2.29289C12.1054 2.48043 12 2.73478 12 3C12 3.26522 12.1054 3.51957 12.2929 3.70711C12.4804 3.89464 12.7348 4 13 4H19C19.2652 4 19.5196 4.10536 19.7071 4.29289C19.8946 4.48043 20 4.73478 20 5V19C20 19.2652 19.8946 19.5196 19.7071 19.7071C19.5196 19.8946 19.2652 20 19 20H13C12.7348 20 12.4804 20.1054 12.2929 20.2929C12.1054 20.4804 12 20.7348 12 21C12 21.2652 12.1054 21.5196 12.2929 21.7071C12.4804 21.8946 12.7348 22 13 22H19C19.7956 22 20.5587 21.6839 21.1213 21.1213C21.6839 20.5587 22 19.7957 22 19V5C22 4.20435 21.6839 3.44129 21.1213 2.87868C20.5587 2.31607 19.7956 2 19 2Z" fill="#263238"/>
<path d="M7.70679 15.2926C7.8023 15.3848 7.87848 15.4952 7.93089 15.6172C7.9833 15.7392 8.01089 15.8704 8.01204 16.0032C8.0132 16.136 7.9879 16.2676 7.93761 16.3905C7.88733 16.5134 7.81308 16.6251 7.71919 16.719C7.62529 16.8129 7.51364 16.8871 7.39075 16.9374C7.26785 16.9877 7.13617 17.013 7.00339 17.0118C6.87061 17.0107 6.73939 16.9831 6.61739 16.9307C6.49538 16.8783 6.38504 16.8021 6.29279 16.7066L2.29279 12.7066C2.10532 12.5191 2 12.2648 2 11.9996C2 11.7344 2.10532 11.4801 2.29279 11.2926L6.29279 7.29259C6.38504 7.19708 6.49538 7.1209 6.61739 7.06849C6.73939 7.01608 6.87061 6.9885 7.00339 6.98734C7.13617 6.98619 7.26785 7.01149 7.39075 7.06177C7.51364 7.11205 7.62529 7.18631 7.71919 7.2802C7.81308 7.37409 7.88733 7.48574 7.93761 7.60864C7.9879 7.73154 8.0132 7.86321 8.01204 7.99599C8.01089 8.12877 7.9833 8.25999 7.93089 8.382C7.87848 8.504 7.8023 8.61435 7.70679 8.70659L5.41379 10.9996H16.9998C17.265 10.9996 17.5194 11.1049 17.7069 11.2925C17.8944 11.48 17.9998 11.7344 17.9998 11.9996C17.9998 12.2648 17.8944 12.5192 17.7069 12.7067C17.5194 12.8942 17.265 12.9996 16.9998 12.9996H5.41379L7.70679 15.2926Z" fill="#263238"/>
</svg>
