<svg width="24" height="24" viewBox="0 0 24 24" fill="none" xmlns="http://www.w3.org/2000/svg">
<path d="M15.6182 11.1284C17.1538 10.0084 18.1539 8.19581 18.1539 6.15384C18.1539 2.76061 15.3933 0 12 0C8.60678 0 5.84618 2.76061 5.84618 6.15384C5.84618 8.19581 6.84616 10.0084 8.38188 11.1284C4.56438 12.5892 1.84619 16.2905 1.84619 20.6154C1.84619 22.4817 3.36452 24 5.2308 24H18.7692C20.6355 24 22.1538 22.4817 22.1538 20.6154C22.1538 16.2905 19.4357 12.5892 15.6182 11.1284ZM7.69235 6.15384C7.69235 3.77859 9.62477 1.84617 12 1.84617C14.3753 1.84617 16.3077 3.77859 16.3077 6.15384C16.3077 8.52909 14.3753 10.4616 12 10.4616C9.62477 10.4616 7.69235 8.52909 7.69235 6.15384ZM18.7692 22.1538H5.2308C4.3825 22.1538 3.69236 21.4637 3.69236 20.6153C3.69236 16.0344 7.41911 12.3076 12.0001 12.3076C16.581 12.3076 20.3078 16.0344 20.3078 20.6153C20.3077 21.4637 19.6176 22.1538 18.7692 22.1538Z" fill="#64768F"/>
</svg>