<svg width="24" height="24" viewBox="0 0 24 24" fill="none" xmlns="http://www.w3.org/2000/svg">
<g clip-path="url(#clip0_418_12833)">
<path d="M21.414 3.0125C21.2696 3.0125 21.1271 3.02422 20.9874 3.04729V0.703122C20.9874 0.314811 20.6726 0 20.2843 0H0.703122C0.314811 0 0 0.314811 0 0.703122V20.2843C0 20.6726 0.314811 20.9874 0.703122 20.9874H4.09255C4.66503 20.9935 5.00337 20.3153 4.65443 19.8616C4.06944 19.1053 4.64159 17.9621 5.59845 17.9749C6.55512 17.9621 7.1276 19.1055 6.54241 19.8616C6.38219 20.0745 6.35618 20.3597 6.47515 20.5982C6.59416 20.8367 6.83777 20.9874 7.10425 20.9874H12.8378C12.5662 22.541 13.8091 24.0148 15.389 23.9999C16.9686 24.0149 18.2121 22.5409 17.9402 20.9874H20.2843C20.6726 20.9874 20.9874 20.6726 20.9874 20.2843V16.895C20.9874 16.6285 20.8368 16.3849 20.5984 16.2659C20.36 16.1468 20.0748 16.1728 19.8618 16.3329C19.1053 16.918 17.9622 16.346 17.9749 15.389C17.9622 14.4322 19.1055 13.8599 19.8618 14.4451C20.0748 14.6053 20.3601 14.6312 20.5984 14.5121C20.8368 14.3931 20.9874 14.1495 20.9874 13.8831V8.14956C22.5411 8.42139 24.0148 7.17817 23.9999 5.5984C23.9999 4.17251 22.8398 3.0125 21.414 3.0125ZM1.40624 1.40624H9.7906V3.04729C8.23703 2.77555 6.76324 4.01858 6.77815 5.59845C6.76319 7.17808 8.23712 8.42162 9.7906 8.14961V9.79065H7.1043C6.83777 9.79065 6.59421 9.94131 6.47519 10.1798C6.35618 10.4182 6.38224 10.7034 6.54246 10.9164C7.1275 11.6727 6.55526 12.8159 5.59845 12.8031C4.64178 12.8159 4.06934 11.6725 4.65448 10.9164C5.00346 10.4626 4.66484 9.78446 4.09259 9.7906H1.40624V1.40624ZM10.1796 16.2659C9.94121 16.3849 9.7906 16.6285 9.7906 16.895V19.5812H8.14961C8.42125 18.0276 7.17832 16.5538 5.5984 16.5687C4.01877 16.5538 2.77532 18.0277 3.04724 19.5812H1.40624V11.1968H3.04724C2.7756 12.7505 4.01853 14.2242 5.5984 14.2093C7.17803 14.2243 8.42153 12.7503 8.14956 11.1968H9.79056V13.8831C9.79056 14.1495 9.94116 14.3931 10.1796 14.5121C10.4179 14.6311 10.7031 14.6052 10.9162 14.4451C11.6726 13.86 12.8158 14.4321 12.8031 15.389C12.8158 16.3459 11.6725 16.9182 10.9162 16.3329C10.7032 16.1728 10.418 16.1468 10.1796 16.2659ZM19.5812 12.8378C18.0276 12.5661 16.5538 13.8091 16.5687 15.389C16.5537 16.9686 18.0277 18.2122 19.5812 17.9402V19.5812H16.8949C16.6283 19.5812 16.3848 19.7319 16.2657 19.9703C16.1467 20.2088 16.1728 20.494 16.333 20.707C16.9181 21.4633 16.3458 22.6065 15.389 22.5937C14.4323 22.6065 13.8599 21.4631 14.445 20.707C14.6053 20.494 14.6313 20.2088 14.5123 19.9703C14.3933 19.7319 14.1497 19.5812 13.8832 19.5812H11.1969V17.9402C12.7505 18.2119 14.2243 16.9689 14.2094 15.389C14.2243 13.8094 12.7504 12.5659 11.1969 12.8379V11.1968H13.8832C14.1497 11.1968 14.3933 11.0462 14.5123 10.8077C14.6313 10.5693 14.6053 10.2841 14.445 10.0711C13.86 9.31482 14.4322 8.17159 15.389 8.18439C16.3457 8.17159 16.9182 9.31496 16.333 10.0711C16.1728 10.284 16.1468 10.5692 16.2657 10.8077C16.3848 11.0462 16.6284 11.1968 16.8949 11.1968H19.5812V12.8378ZM21.414 6.7781C21.1565 6.7781 20.912 6.69658 20.7068 6.54232C20.2529 6.19357 19.575 6.53215 19.5812 7.10435V9.7906H17.9402C18.2118 8.23698 16.9689 6.76324 15.389 6.77815C13.8093 6.76319 12.5659 8.23712 12.8378 9.7906H11.1968V7.10435C11.1968 6.83786 11.0462 6.5943 10.8078 6.47529C10.5694 6.35623 10.2842 6.38219 10.0712 6.54232C9.31473 7.12741 8.17159 6.55535 8.18434 5.5984C8.17159 4.64159 9.31492 4.0693 10.0712 4.65453C10.2842 4.81465 10.5694 4.84062 10.8078 4.72156C11.0462 4.60254 11.1968 4.35898 11.1968 4.0925V1.40624H19.5812V4.0925C19.5812 4.35898 19.7318 4.60254 19.9702 4.72156C20.2085 4.84057 20.4937 4.81465 20.7068 4.65453C21.4633 4.06939 22.6063 4.64154 22.5936 5.59845C22.5937 6.24888 22.0644 6.7781 21.414 6.7781Z" fill="#64768F"/>
</g>
<defs>
<clipPath id="clip0_418_12833">
<rect width="24" height="24" fill="white"/>
</clipPath>
</defs>
</svg>
