<svg width="11" height="20" viewBox="0 0 11 20" fill="none" xmlns="http://www.w3.org/2000/svg">
<path d="M4.54555 19.0909L4.54555 3.10379L1.55197 6.09737C1.197 6.4524 0.621364 6.4524 0.266333 6.09737C0.0888788 5.91986 8.98161e-05 5.68719 8.98188e-05 5.45452C8.98216e-05 5.22186 0.0888779 4.98919 0.266393 4.81173L4.81185 0.266273C5.16682 -0.0887585 5.74246 -0.0887585 6.09749 0.266273L10.643 4.81173C10.9979 5.1667 10.9979 5.74234 10.643 6.09737C10.288 6.4524 9.71234 6.4524 9.35731 6.09737L6.36373 3.10379L6.36373 19.0909C6.36373 19.593 5.9567 20 5.45464 20C4.95258 20 4.54555 19.593 4.54555 19.0909Z" fill="#47A04B"/>
</svg>
