<svg width="12" height="12" viewBox="0 0 12 12" fill="none" xmlns="http://www.w3.org/2000/svg">
<path d="M9.51562 1.45312H7.99219V1.05469C7.99219 0.473133 7.51905 0 6.9375 0H5.0625C4.48095 0 4.00781 0.473133 4.00781 1.05469V1.45312H2.48438C1.90282 1.45312 1.42969 1.92626 1.42969 2.50781V3.21094C1.42969 3.40509 1.58709 3.5625 1.78125 3.5625H1.92652L2.53113 10.818C2.55806 11.1411 2.70429 11.44 2.94291 11.6595C3.18152 11.8791 3.49151 12 3.81574 12H8.18423C8.50849 12 8.81848 11.8791 9.05707 11.6595C9.29566 11.44 9.44194 11.1411 9.46884 10.818L10.0735 3.5625H10.2188C10.4129 3.5625 10.5703 3.40509 10.5703 3.21094V2.50781C10.5703 1.92626 10.0972 1.45312 9.51562 1.45312ZM4.71094 1.05469C4.71094 0.860836 4.86865 0.703125 5.0625 0.703125H6.9375C7.13135 0.703125 7.28906 0.860836 7.28906 1.05469V1.45312H4.71094V1.05469ZM8.76816 10.7596C8.74305 11.0609 8.48658 11.2969 8.18423 11.2969H3.81574C3.51342 11.2969 3.25695 11.0609 3.23182 10.7596L2.63208 3.5625H9.36792L8.76816 10.7596ZM9.86719 2.85938H2.13281V2.50781C2.13281 2.31396 2.29052 2.15625 2.48438 2.15625H9.51562C9.70948 2.15625 9.86719 2.31396 9.86719 2.50781V2.85938Z" fill="#64768F"/>
<path d="M6 10.125C6.19418 10.125 6.35156 9.96759 6.35156 9.77344V5.08594C6.35156 4.89178 6.19416 4.73438 6 4.73438C5.80584 4.73438 5.64844 4.89178 5.64844 5.08594V9.77344C5.64844 9.96759 5.80584 10.125 6 10.125Z" fill="#64768F"/>
<path d="M7.49716 10.124C7.69078 10.1386 7.8595 9.99337 7.87403 9.79975L8.2256 5.11225C8.24013 4.91863 8.09493 4.74991 7.90132 4.73538C7.7077 4.72085 7.53897 4.86604 7.52444 5.05966L7.17288 9.74716C7.15835 9.94078 7.30354 10.1095 7.49716 10.124Z" fill="#64768F"/>
<path d="M4.126 9.79975C4.14053 9.99337 4.30926 10.1386 4.50288 10.124C4.69649 10.1095 4.84169 9.94078 4.82716 9.74716L4.4756 5.05966C4.46106 4.86604 4.29234 4.72085 4.09872 4.73538C3.9051 4.74991 3.75991 4.91863 3.77444 5.11225L4.126 9.79975Z" fill="#64768F"/>
</svg>
