<svg width="16" height="16" viewBox="0 0 16 16" fill="none" xmlns="http://www.w3.org/2000/svg">
<path d="M5.8533 7.89744C6.1047 8.26125 6.02955 7.9581 6.02955 15.2098C6.02955 15.8588 6.76992 16.2302 7.29173 15.842C9.52151 14.1609 9.96701 14.0153 9.96701 13.2289C9.96701 7.94444 9.90542 8.24163 10.1433 7.89744L13.7642 2.96875H2.23242L5.8533 7.89744Z" fill="#0066F2"/>
<path d="M15.1317 0.401875C15.0024 0.154062 14.7486 0 14.4693 0H1.5269C0.923621 0 0.568652 0.680531 0.914715 1.175C0.917559 1.17975 0.875434 1.12209 1.54346 2.03125H14.4527C15.022 1.25647 15.4025 0.921719 15.1317 0.401875Z" fill="#0066F2"/>
</svg>
